<svg width="18" height="20" viewBox="0 0 18 20" fill="none" xmlns="http://www.w3.org/2000/svg">
<path fill-rule="evenodd" clip-rule="evenodd" d="M9.00006 2.41669C7.87289 2.41669 6.79188 2.86445 5.99485 3.66148C5.19782 4.45851 4.75006 5.53952 4.75006 6.66669C4.75006 9.69386 4.10036 11.6949 3.40848 12.9633C3.31926 13.1269 3.2296 13.2778 3.14091 13.4167H8.2966C8.71082 13.4167 9.0466 13.7525 9.0466 14.1667C9.0466 14.5809 8.71082 14.9167 8.2966 14.9167H1.50006C1.16956 14.9167 0.878013 14.7003 0.782239 14.384C0.686466 14.0677 0.80904 13.726 1.08403 13.5426L1.50006 14.1667C1.08403 13.5426 1.08355 13.543 1.08308 13.5433L1.08218 13.5439L1.08054 13.545L1.07795 13.5468L1.07536 13.5485C1.07479 13.549 1.07647 13.5478 1.08028 13.5449C1.08788 13.5393 1.10396 13.527 1.12734 13.5075C1.17409 13.4686 1.25014 13.4007 1.34622 13.2993C1.53798 13.0969 1.81154 12.7586 2.09164 12.245C2.64976 11.2218 3.25006 9.47285 3.25006 6.66669C3.25006 5.14169 3.85586 3.67916 4.93419 2.60082C6.01253 1.52249 7.47506 0.916687 9.00006 0.916687C10.5251 0.916687 11.9876 1.52249 13.0659 2.60082C14.1443 3.67916 14.7501 5.14169 14.7501 6.66669C14.7501 7.65325 14.8243 8.50861 14.9445 9.24707C15.011 9.6559 14.7335 10.0413 14.3247 10.1078C13.9159 10.1743 13.5305 9.89685 13.464 9.48802C13.33 8.66477 13.2501 7.72859 13.2501 6.66669C13.2501 5.53952 12.8023 4.45851 12.0053 3.66148C11.2082 2.86445 10.1272 2.41669 9.00006 2.41669Z" fill="#6C6C6C"/>
<path fill-rule="evenodd" clip-rule="evenodd" d="M7.22181 16.8428C7.58478 16.6432 8.0408 16.7757 8.24036 17.1387C8.31514 17.2747 8.42507 17.3881 8.55866 17.4671C8.69225 17.5461 8.84461 17.5878 8.99981 17.5878C9.15502 17.5878 9.30737 17.5461 9.44097 17.4671C9.7975 17.2563 10.2575 17.3744 10.4683 17.7309C10.6791 18.0874 10.561 18.5474 10.2045 18.7582C9.8397 18.974 9.42365 19.0878 8.99981 19.0878C8.57598 19.0878 8.15993 18.974 7.79512 18.7582C7.43031 18.5425 7.13013 18.2328 6.92593 17.8614C6.72637 17.4984 6.85884 17.0424 7.22181 16.8428Z" fill="#6C6C6C"/>
<path fill-rule="evenodd" clip-rule="evenodd" d="M15.5541 11.2313C15.9327 11.3996 16.1031 11.8428 15.9349 12.2213L15.8786 12.348C16.1777 12.5603 16.4393 12.822 16.6516 13.1211L16.7786 13.0647C17.1571 12.8964 17.6003 13.0669 17.7686 13.4454C17.9368 13.8239 17.7663 14.2672 17.3878 14.4354L17.2133 14.513C17.2371 14.6718 17.2495 14.8345 17.2495 15C17.2495 15.1656 17.2371 15.3282 17.2133 15.4871L17.3878 15.5647C17.7663 15.7329 17.9368 16.1761 17.7686 16.5546C17.6003 16.9331 17.1571 17.1036 16.7786 16.9354L16.6516 16.879C16.4393 17.1781 16.1777 17.4397 15.8786 17.6521L15.9349 17.7788C16.1031 18.1573 15.9327 18.6005 15.5541 18.7687C15.1756 18.9369 14.7324 18.7665 14.5642 18.388L14.4867 18.2137C14.3278 18.2376 14.1651 18.25 13.9995 18.25C13.834 18.25 13.6713 18.2376 13.5125 18.2138L13.4351 18.388C13.2668 18.7665 12.8236 18.9369 12.4451 18.7687C12.0666 18.6005 11.8961 18.1573 12.0643 17.7788L12.1206 17.6522C11.8215 17.4399 11.5598 17.1782 11.3475 16.8791L11.2208 16.9354C10.8423 17.1036 10.3991 16.9331 10.2308 16.5546C10.0626 16.1761 10.2331 15.7329 10.6116 15.5647L10.7858 15.4872C10.7619 15.3283 10.7495 15.1656 10.7495 15C10.7495 14.8344 10.7619 14.6717 10.7858 14.5128L10.6116 14.4354C10.2331 14.2672 10.0626 13.8239 10.2308 13.4454C10.3991 13.0669 10.8423 12.8964 11.2208 13.0647L11.3475 13.121C11.5598 12.8218 11.8215 12.5602 12.1206 12.3479L12.0643 12.2213C11.8961 11.8428 12.0666 11.3996 12.4451 11.2313C12.8236 11.0631 13.2668 11.2336 13.4351 11.6121L13.5125 11.7863C13.6713 11.7624 13.834 11.75 13.9995 11.75C14.1651 11.75 14.3278 11.7624 14.4867 11.7863L14.5642 11.6121C14.7324 11.2336 15.1756 11.0631 15.5541 11.2313ZM13.9995 13.25C13.033 13.25 12.2495 14.0335 12.2495 15C12.2495 15.9665 13.033 16.75 13.9995 16.75C14.966 16.75 15.7495 15.9665 15.7495 15C15.7495 14.0335 14.966 13.25 13.9995 13.25Z" fill="#6C6C6C"/>
</svg>
