<svg width="19" height="19" viewBox="0 0 19 19" fill="none" xmlns="http://www.w3.org/2000/svg">
<path fill-rule="evenodd" clip-rule="evenodd" d="M5.14804 2.3257C6.73722 1.16777 8.68772 0.615509 10.6481 0.768441C12.6084 0.921374 14.4496 1.76944 15.84 3.15982C17.2304 4.5502 18.0785 6.39145 18.2314 8.35179C18.3843 10.3121 17.8321 12.2626 16.6741 13.8518C15.5162 15.441 13.8288 16.5643 11.9159 17.0194C10.1081 17.4495 8.21135 17.2561 6.53169 16.476L1.9073 18.0436C1.63696 18.1353 1.33804 18.0655 1.13619 17.8637C0.93435 17.6618 0.864584 17.3629 0.956225 17.0925L2.52382 12.4682C1.74379 10.7885 1.55033 8.89175 1.98041 7.084C2.4355 5.17109 3.55886 3.48364 5.14804 2.3257ZM10.5314 2.2639C8.92748 2.13877 7.33162 2.59062 6.03138 3.53802C4.73114 4.48542 3.81203 5.86607 3.43968 7.43117C3.06733 8.99627 3.26622 10.6429 4.00051 12.0743C4.09313 12.2549 4.10864 12.4653 4.04349 12.6574L2.86456 16.1353L6.34241 14.9564C6.53459 14.8912 6.74496 14.9067 6.92551 14.9993C8.35695 15.7336 10.0036 15.9325 11.5687 15.5602C13.1338 15.1878 14.5144 14.2687 15.4618 12.9685C16.4092 11.6682 16.8611 10.0724 16.7359 8.46846C16.6108 6.86454 15.9169 5.35806 14.7794 4.22048C13.6418 3.0829 12.1353 2.38902 10.5314 2.2639Z" fill="#6C6C6C"/>
<path fill-rule="evenodd" clip-rule="evenodd" d="M10.2291 5.60479C9.82177 5.53492 9.40285 5.61146 9.04655 5.82086C8.69025 6.03027 8.41956 6.35901 8.28241 6.74887C8.14496 7.13961 7.71677 7.34494 7.32603 7.20749C6.93529 7.07003 6.72996 6.64185 6.86741 6.25111C7.12211 5.52708 7.62483 4.91655 8.28653 4.52767C8.94823 4.13878 9.72621 3.99662 10.4827 4.12638C11.2392 4.25613 11.9253 4.64942 12.4196 5.23659C12.9137 5.8236 13.1842 6.5665 13.1832 7.33378C13.183 8.56501 12.2695 9.38555 11.5993 9.83236C11.2413 10.071 10.8887 10.2468 10.6285 10.3624C10.4973 10.4207 10.387 10.4649 10.3077 10.4951C10.2679 10.5103 10.2358 10.5219 10.2126 10.5302L10.1844 10.5401L10.1756 10.5431L10.1725 10.5441L10.1714 10.5445L10.1709 10.5447C10.1706 10.5448 10.1704 10.5448 9.94209 9.85985L10.1704 10.5448C9.77746 10.6758 9.35272 10.4634 9.22173 10.0705C9.09091 9.67803 9.30258 9.25388 9.69457 9.12231C9.69489 9.1222 9.69521 9.1221 9.69552 9.12199C9.69558 9.12197 9.69563 9.12196 9.69568 9.12194M13.1832 7.33378C13.1832 7.334 13.1832 7.33422 13.1832 7.33444L12.4332 7.33332H13.1832C13.1832 7.33348 13.1832 7.33363 13.1832 7.33378ZM9.69552 9.12199L9.69535 9.12205L9.69639 9.12169L9.71006 9.11689C9.72343 9.11214 9.74503 9.1043 9.77367 9.09339C9.83108 9.07152 9.91605 9.03759 10.0193 8.99171C10.2278 8.89902 10.5002 8.7623 10.7672 8.58428C11.3469 8.19782 11.6832 7.7685 11.6832 7.33332L11.6832 7.3322C11.6839 6.91893 11.5382 6.51876 11.272 6.2026C11.0059 5.88643 10.6364 5.67465 10.2291 5.60479" fill="#6C6C6C"/>
<path fill-rule="evenodd" clip-rule="evenodd" d="M9.25 13.1667C9.25 12.7524 9.58579 12.4167 10 12.4167H10.0083C10.4225 12.4167 10.7583 12.7524 10.7583 13.1667C10.7583 13.5809 10.4225 13.9167 10.0083 13.9167H10C9.58579 13.9167 9.25 13.5809 9.25 13.1667Z" fill="#6C6C6C"/>
</svg>
