<svg width="14" height="18" viewBox="0 0 14 18" fill="none" xmlns="http://www.w3.org/2000/svg">
<path fill-rule="evenodd" clip-rule="evenodd" d="M2.83366 2.25C2.59054 2.25 2.35739 2.34658 2.18548 2.51849C2.01357 2.69039 1.91699 2.92355 1.91699 3.16667V15.2076L6.62822 12.5155C6.8588 12.3837 7.14186 12.3837 7.37243 12.5155L12.0837 15.2076V3.16667C12.0837 2.92355 11.9871 2.69039 11.8152 2.51849C11.6433 2.34658 11.4101 2.25 11.167 2.25H2.83366ZM1.12482 1.45783C1.57803 1.00461 2.19272 0.75 2.83366 0.75H11.167C11.8079 0.75 12.4226 1.00461 12.8758 1.45783C13.329 1.91104 13.5837 2.52573 13.5837 3.16667V16.5C13.5837 16.7674 13.4413 17.0145 13.2101 17.1487C12.9789 17.2829 12.6937 17.2838 12.4616 17.1512L7.00033 14.0305L1.5391 17.1512C1.30697 17.2838 1.02178 17.2829 0.790547 17.1487C0.559311 17.0145 0.416992 16.7674 0.416992 16.5V3.16667C0.416992 2.52573 0.671604 1.91104 1.12482 1.45783Z" fill="#6C6C6C"/>
<path fill-rule="evenodd" clip-rule="evenodd" d="M10.0303 5.13636C10.3232 5.42925 10.3232 5.90412 10.0303 6.19702L6.697 9.53035C6.4041 9.82324 5.92923 9.82324 5.63634 9.53035L3.96967 7.86368C3.67678 7.57079 3.67678 7.09592 3.96967 6.80302C4.26256 6.51013 4.73744 6.51013 5.03033 6.80302L6.16667 7.93936L8.96967 5.13636C9.26256 4.84346 9.73744 4.84346 10.0303 5.13636Z" fill="#6C6C6C"/>
</svg>
