<svg width="16" height="20" viewBox="0 0 16 20" fill="none" xmlns="http://www.w3.org/2000/svg">
<path fill-rule="evenodd" clip-rule="evenodd" d="M5.50033 2.41675C5.4543 2.41675 5.41699 2.45406 5.41699 2.50008V4.16675C5.41699 4.21277 5.4543 4.25008 5.50033 4.25008H10.5003C10.5463 4.25008 10.5837 4.21277 10.5837 4.16675V2.50008C10.5837 2.45406 10.5463 2.41675 10.5003 2.41675H5.50033ZM3.91699 2.50008C3.91699 1.62563 4.62587 0.916748 5.50033 0.916748H10.5003C11.3748 0.916748 12.0837 1.62563 12.0837 2.50008V4.16675C12.0837 5.0412 11.3748 5.75008 10.5003 5.75008H5.50033C4.62587 5.75008 3.91699 5.0412 3.91699 4.16675V2.50008Z" fill="#6C6C6C"/>
<path fill-rule="evenodd" clip-rule="evenodd" d="M2.99967 4.08325C2.75656 4.08325 2.5234 4.17983 2.35149 4.35174C2.17958 4.52365 2.08301 4.7568 2.08301 4.99992V16.6666C2.08301 16.9097 2.17958 17.1429 2.35149 17.3148C2.5234 17.4867 2.75656 17.5833 2.99967 17.5833H12.9997C13.2428 17.5833 13.4759 17.4867 13.6479 17.3148C13.8198 17.1429 13.9163 16.9097 13.9163 16.6666V4.99992C13.9163 4.7568 13.8198 4.52365 13.6479 4.35174C13.4759 4.17983 13.2428 4.08325 12.9997 4.08325H11.333C10.9188 4.08325 10.583 3.74747 10.583 3.33325C10.583 2.91904 10.9188 2.58325 11.333 2.58325H12.9997C13.6406 2.58325 14.2553 2.83786 14.7085 3.29108C15.1617 3.74429 15.4163 4.35898 15.4163 4.99992V16.6666C15.4163 17.3075 15.1617 17.9222 14.7085 18.3754C14.2553 18.8286 13.6406 19.0833 12.9997 19.0833H2.99967C2.35873 19.0833 1.74405 18.8286 1.29083 18.3754C0.83762 17.9222 0.583008 17.3075 0.583008 16.6666V4.99992C0.583008 4.35898 0.83762 3.74429 1.29083 3.29108C1.74405 2.83786 2.35873 2.58325 2.99967 2.58325H4.66634C5.08055 2.58325 5.41634 2.91904 5.41634 3.33325C5.41634 3.74747 5.08055 4.08325 4.66634 4.08325H2.99967Z" fill="#6C6C6C"/>
<path fill-rule="evenodd" clip-rule="evenodd" d="M7.25 9.16675C7.25 8.75253 7.58579 8.41675 8 8.41675H11.3333C11.7475 8.41675 12.0833 8.75253 12.0833 9.16675C12.0833 9.58096 11.7475 9.91675 11.3333 9.91675H8C7.58579 9.91675 7.25 9.58096 7.25 9.16675Z" fill="#6C6C6C"/>
<path fill-rule="evenodd" clip-rule="evenodd" d="M7.25 13.3333C7.25 12.919 7.58579 12.5833 8 12.5833H11.3333C11.7475 12.5833 12.0833 12.919 12.0833 13.3333C12.0833 13.7475 11.7475 14.0833 11.3333 14.0833H8C7.58579 14.0833 7.25 13.7475 7.25 13.3333Z" fill="#6C6C6C"/>
<path fill-rule="evenodd" clip-rule="evenodd" d="M3.91699 9.16675C3.91699 8.75253 4.25278 8.41675 4.66699 8.41675H4.67533C5.08954 8.41675 5.42533 8.75253 5.42533 9.16675C5.42533 9.58096 5.08954 9.91675 4.67533 9.91675H4.66699C4.25278 9.91675 3.91699 9.58096 3.91699 9.16675Z" fill="#6C6C6C"/>
<path fill-rule="evenodd" clip-rule="evenodd" d="M3.91699 13.3333C3.91699 12.919 4.25278 12.5833 4.66699 12.5833H4.67533C5.08954 12.5833 5.42533 12.919 5.42533 13.3333C5.42533 13.7475 5.08954 14.0833 4.67533 14.0833H4.66699C4.25278 14.0833 3.91699 13.7475 3.91699 13.3333Z" fill="#6C6C6C"/>
</svg>
