<svg width="18" height="18" viewBox="0 0 18 18" fill="none" xmlns="http://www.w3.org/2000/svg">
<path fill-rule="evenodd" clip-rule="evenodd" d="M3.16667 2.25C2.92355 2.25 2.69039 2.34658 2.51849 2.51849C2.34658 2.69039 2.25 2.92355 2.25 3.16667V14.8333C2.25 15.0764 2.34658 15.3096 2.51849 15.4815C2.69039 15.6534 2.92355 15.75 3.16667 15.75H6.5C6.91421 15.75 7.25 16.0858 7.25 16.5C7.25 16.9142 6.91421 17.25 6.5 17.25H3.16667C2.52573 17.25 1.91104 16.9954 1.45783 16.5422C1.00461 16.089 0.75 15.4743 0.75 14.8333V3.16667C0.75 2.52573 1.00461 1.91104 1.45783 1.45783C1.91104 1.00461 2.52573 0.75 3.16667 0.75H6.5C6.91421 0.75 7.25 1.08579 7.25 1.5C7.25 1.91421 6.91421 2.25 6.5 2.25H3.16667Z" fill="#6C6C6C"/>
<path fill-rule="evenodd" clip-rule="evenodd" d="M11.8032 4.30292C12.0961 4.01003 12.5709 4.01003 12.8638 4.30292L17.0305 8.46959C17.3234 8.76248 17.3234 9.23736 17.0305 9.53025L12.8638 13.6969C12.5709 13.9898 12.0961 13.9898 11.8032 13.6969C11.5103 13.404 11.5103 12.9291 11.8032 12.6363L15.4395 8.99992L11.8032 5.36358C11.5103 5.07069 11.5103 4.59582 11.8032 4.30292Z" fill="#6C6C6C"/>
<path fill-rule="evenodd" clip-rule="evenodd" d="M5.75 9C5.75 8.58579 6.08579 8.25 6.5 8.25H16.5C16.9142 8.25 17.25 8.58579 17.25 9C17.25 9.41421 16.9142 9.75 16.5 9.75H6.5C6.08579 9.75 5.75 9.41421 5.75 9Z" fill="#6C6C6C"/>
</svg>
