<svg width="19" height="18" viewBox="0 0 19 18" fill="none" xmlns="http://www.w3.org/2000/svg">
<path fill-rule="evenodd" clip-rule="evenodd" d="M10.1338 10.8645C9.24679 10.5812 8.30543 10.5112 7.38628 10.6603C6.46713 10.8094 5.59615 11.1734 4.84417 11.7225C4.0922 12.2717 3.48045 12.9906 3.0587 13.8208C2.63694 14.6509 2.41708 15.5689 2.41699 16.5001C2.41695 16.9143 2.08114 17.2501 1.66692 17.25C1.25271 17.25 0.916954 16.9142 0.916992 16.5C0.9171 15.3327 1.1927 14.182 1.72138 13.1414C2.25006 12.1007 3.0169 11.1996 3.95952 10.5112C4.90214 9.82278 5.99393 9.36658 7.1461 9.17968C8.29827 8.99278 9.47828 9.08046 10.5902 9.43559C10.9848 9.56162 11.2025 9.98365 11.0764 10.3782C10.9504 10.7728 10.5284 10.9905 10.1338 10.8645Z" fill="#6C6C6C"/>
<path fill-rule="evenodd" clip-rule="evenodd" d="M8.33366 2.25C6.44669 2.25 4.91699 3.77969 4.91699 5.66667C4.91699 7.55364 6.44669 9.08333 8.33366 9.08333C10.2206 9.08333 11.7503 7.55364 11.7503 5.66667C11.7503 3.77969 10.2206 2.25 8.33366 2.25ZM3.41699 5.66667C3.41699 2.95127 5.61826 0.75 8.33366 0.75C11.0491 0.75 13.2503 2.95127 13.2503 5.66667C13.2503 8.38207 11.0491 10.5833 8.33366 10.5833C5.61826 10.5833 3.41699 8.38207 3.41699 5.66667Z" fill="#6C6C6C"/>
<path fill-rule="evenodd" clip-rule="evenodd" d="M15 12.25C14.0335 12.25 13.25 13.0335 13.25 14C13.25 14.9665 14.0335 15.75 15 15.75C15.9665 15.75 16.75 14.9665 16.75 14C16.75 13.0335 15.9665 12.25 15 12.25ZM11.75 14C11.75 12.2051 13.2051 10.75 15 10.75C16.7949 10.75 18.25 12.2051 18.25 14C18.25 15.7949 16.7949 17.25 15 17.25C13.2051 17.25 11.75 15.7949 11.75 14Z" fill="#6C6C6C"/>
<path fill-rule="evenodd" clip-rule="evenodd" d="M16.5541 10.2313C16.9327 10.3996 17.1031 10.8428 16.9349 11.2213L16.6016 11.9713C16.4333 12.3498 15.9901 12.5203 15.6116 12.352C15.2331 12.1838 15.0626 11.7406 15.2308 11.3621L15.5642 10.6121C15.7324 10.2336 16.1756 10.0631 16.5541 10.2313Z" fill="#6C6C6C"/>
<path fill-rule="evenodd" clip-rule="evenodd" d="M14.3881 15.648C14.7666 15.8162 14.9371 16.2594 14.7689 16.6379L14.4355 17.3879C14.2673 17.7664 13.8241 17.9369 13.4456 17.7687C13.0671 17.6004 12.8966 17.1572 13.0648 16.7787L13.3982 16.0287C13.5664 15.6502 14.0096 15.4797 14.3881 15.648Z" fill="#6C6C6C"/>
<path fill-rule="evenodd" clip-rule="evenodd" d="M16.6478 14.6121C16.8161 14.2336 17.2593 14.0631 17.6378 14.2313L18.3878 14.5647C18.7663 14.7329 18.9368 15.1761 18.7686 15.5546C18.6003 15.9331 18.1571 16.1036 17.7786 15.9354L17.0286 15.6021C16.6501 15.4338 16.4796 14.9906 16.6478 14.6121Z" fill="#6C6C6C"/>
<path fill-rule="evenodd" clip-rule="evenodd" d="M11.2308 12.4453C11.3991 12.0668 11.8423 11.8964 12.2208 12.0646L12.9708 12.3979C13.3493 12.5661 13.5198 13.0094 13.3516 13.3879C13.1833 13.7664 12.7401 13.9369 12.3616 13.7686L11.6116 13.4353C11.2331 13.2671 11.0626 12.8239 11.2308 12.4453Z" fill="#6C6C6C"/>
<path fill-rule="evenodd" clip-rule="evenodd" d="M18.7686 12.4454C18.9368 12.8239 18.7663 13.2671 18.3878 13.4354L17.6378 13.7687C17.2593 13.9369 16.8161 13.7665 16.6478 13.3879C16.4796 13.0094 16.6501 12.5662 17.0286 12.398L17.7786 12.0646C18.1571 11.8964 18.6003 12.0669 18.7686 12.4454Z" fill="#6C6C6C"/>
<path fill-rule="evenodd" clip-rule="evenodd" d="M13.3516 14.6121C13.5198 14.9906 13.3493 15.4338 12.9708 15.602L12.2208 15.9354C11.8423 16.1036 11.3991 15.9331 11.2308 15.5546C11.0626 15.1761 11.2331 14.7329 11.6116 14.5647L12.3616 14.2313C12.7401 14.0631 13.1833 14.2336 13.3516 14.6121Z" fill="#6C6C6C"/>
<path fill-rule="evenodd" clip-rule="evenodd" d="M15.6116 15.6481C15.9901 15.4799 16.4333 15.6503 16.6016 16.0288L16.9349 16.7788C17.1031 17.1574 16.9327 17.6006 16.5541 17.7688C16.1756 17.937 15.7324 17.7666 15.5642 17.388L15.2308 16.638C15.0626 16.2595 15.2331 15.8163 15.6116 15.6481Z" fill="#6C6C6C"/>
<path fill-rule="evenodd" clip-rule="evenodd" d="M13.4456 10.2313C13.8241 10.0631 14.2673 10.2336 14.4355 10.6121L14.7689 11.3621C14.9371 11.7406 14.7666 12.1838 14.3881 12.352C14.0096 12.5203 13.5664 12.3498 13.3982 11.9713L13.0648 11.2213C12.8966 10.8428 13.0671 10.3996 13.4456 10.2313Z" fill="#6C6C6C"/>
</svg>
