<svg width="23" height="22" viewBox="0 0 23 22" fill="none" xmlns="http://www.w3.org/2000/svg">
<path d="M3.85019 7.6201C3.70423 6.96262 3.72665 6.27894 3.91535 5.63244C4.10405 4.98593 4.45294 4.39754 4.92966 3.92182C5.40638 3.4461 5.9955 3.09844 6.6424 2.91109C7.2893 2.72374 7.97303 2.70276 8.63019 2.8501C8.9919 2.2844 9.4902 1.81886 10.0791 1.49638C10.6681 1.17391 11.3287 1.00488 12.0002 1.00488C12.6716 1.00488 13.3323 1.17391 13.9212 1.49638C14.5102 1.81886 15.0085 2.2844 15.3702 2.8501C16.0284 2.70212 16.7133 2.72301 17.3612 2.91081C18.0091 3.09862 18.599 3.44724 19.076 3.92425C19.5531 4.40126 19.9017 4.99117 20.0895 5.6391C20.2773 6.28703 20.2982 6.97193 20.1502 7.6301C20.7159 7.99181 21.1814 8.4901 21.5039 9.07905C21.8264 9.668 21.9954 10.3286 21.9954 11.0001C21.9954 11.6715 21.8264 12.3322 21.5039 12.9211C21.1814 13.5101 20.7159 14.0084 20.1502 14.3701C20.2975 15.0273 20.2765 15.711 20.0892 16.3579C19.9018 17.0048 19.5542 17.5939 19.0785 18.0706C18.6027 18.5473 18.0144 18.8962 17.3679 19.0849C16.7213 19.2736 16.0377 19.2961 15.3802 19.1501C15.019 19.718 14.5203 20.1855 13.9303 20.5094C13.3404 20.8333 12.6782 21.0032 12.0052 21.0032C11.3322 21.0032 10.67 20.8333 10.0801 20.5094C9.49011 20.1855 8.99143 19.718 8.63019 19.1501C7.97303 19.2974 7.2893 19.2765 6.6424 19.0891C5.9955 18.9018 5.40638 18.5541 4.92966 18.0784C4.45294 17.6027 4.10405 17.0143 3.91535 16.3678C3.72665 15.7213 3.70423 15.0376 3.85019 14.3801C3.28015 14.0193 2.81061 13.5203 2.48524 12.9293C2.15988 12.3384 1.98926 11.6747 1.98926 11.0001C1.98926 10.3255 2.15988 9.66184 2.48524 9.07088C2.81061 8.47992 3.28015 7.98085 3.85019 7.6201Z" stroke="#252525" stroke-width="2" stroke-linecap="round" stroke-linejoin="round"/>
<path d="M9 11L11 13L15 9" stroke="#252525" stroke-width="2" stroke-linecap="round" stroke-linejoin="round"/>
</svg>
