<svg width="19" height="22" viewBox="0 0 19 22" fill="none" xmlns="http://www.w3.org/2000/svg">
<path d="M12.5 1H3.5C2.96957 1 2.46086 1.21071 2.08579 1.58579C1.71071 1.96086 1.5 2.46957 1.5 3V19C1.5 19.5304 1.71071 20.0391 2.08579 20.4142C2.46086 20.7893 2.96957 21 3.5 21H15.5C16.0304 21 16.5391 20.7893 16.9142 20.4142C17.2893 20.0391 17.5 19.5304 17.5 19V6L12.5 1Z" stroke="#252525" stroke-width="2" stroke-linecap="round" stroke-linejoin="round"/>
<path d="M11.5 1V5C11.5 5.53043 11.7107 6.03914 12.0858 6.41421C12.4609 6.78929 12.9696 7 13.5 7H17.5" stroke="#252525" stroke-width="2" stroke-linecap="round" stroke-linejoin="round"/>
<path d="M12.5 14L9.5 11L6.5 14" stroke="#252525" stroke-width="2" stroke-linecap="round" stroke-linejoin="round"/>
</svg>
