<svg width="20" height="20" viewBox="0 0 20 20" fill="none" xmlns="http://www.w3.org/2000/svg">
<path fill-rule="evenodd" clip-rule="evenodd" d="M5.66675 5C5.66675 4.44772 6.11446 4 6.66675 4H17.5001C18.0524 4 18.5001 4.44772 18.5001 5C18.5001 5.55228 18.0524 6 17.5001 6H6.66675C6.11446 6 5.66675 5.55228 5.66675 5Z" fill="#616161"/>
<path fill-rule="evenodd" clip-rule="evenodd" d="M5.66675 10C5.66675 9.44772 6.11446 9 6.66675 9H17.5001C18.0524 9 18.5001 9.44772 18.5001 10C18.5001 10.5523 18.0524 11 17.5001 11H6.66675C6.11446 11 5.66675 10.5523 5.66675 10Z" fill="#616161"/>
<path fill-rule="evenodd" clip-rule="evenodd" d="M5.66675 15C5.66675 14.4477 6.11446 14 6.66675 14H17.5001C18.0524 14 18.5001 14.4477 18.5001 15C18.5001 15.5523 18.0524 16 17.5001 16H6.66675C6.11446 16 5.66675 15.5523 5.66675 15Z" fill="#616161"/>
<path fill-rule="evenodd" clip-rule="evenodd" d="M1.5 5C1.5 4.44772 1.94772 4 2.5 4H2.50833C3.06062 4 3.50833 4.44772 3.50833 5C3.50833 5.55228 3.06062 6 2.50833 6H2.5C1.94772 6 1.5 5.55228 1.5 5Z" fill="#616161"/>
<path fill-rule="evenodd" clip-rule="evenodd" d="M1.5 10C1.5 9.44772 1.94772 9 2.5 9H2.50833C3.06062 9 3.50833 9.44772 3.50833 10C3.50833 10.5523 3.06062 11 2.50833 11H2.5C1.94772 11 1.5 10.5523 1.5 10Z" fill="#616161"/>
<path fill-rule="evenodd" clip-rule="evenodd" d="M1.5 15C1.5 14.4477 1.94772 14 2.5 14H2.50833C3.06062 14 3.50833 14.4477 3.50833 15C3.50833 15.5523 3.06062 16 2.50833 16H2.5C1.94772 16 1.5 15.5523 1.5 15Z" fill="#616161"/>
</svg>
