<svg width="20" height="20" viewBox="0 0 20 20" fill="none" xmlns="http://www.w3.org/2000/svg">
<g clip-path="url(#clip0_11_3761)">
<path fill-rule="evenodd" clip-rule="evenodd" d="M6.66675 2.41663C4.31954 2.41663 2.41675 4.31942 2.41675 6.66663C2.41675 9.01384 4.31954 10.9166 6.66675 10.9166C9.01396 10.9166 10.9167 9.01384 10.9167 6.66663C10.9167 4.31942 9.01396 2.41663 6.66675 2.41663ZM0.916748 6.66663C0.916748 3.49099 3.49111 0.916626 6.66675 0.916626C9.84239 0.916626 12.4167 3.49099 12.4167 6.66663C12.4167 9.84226 9.84239 12.4166 6.66675 12.4166C3.49111 12.4166 0.916748 9.84226 0.916748 6.66663Z" fill="#616161"/>
<path fill-rule="evenodd" clip-rule="evenodd" d="M14.3722 8.37969C14.5169 7.99157 14.9489 7.79424 15.337 7.93893C16.2429 8.27668 17.049 8.8374 17.6808 9.56925C18.3126 10.3011 18.7497 11.1804 18.9516 12.126C19.1535 13.0715 19.1137 14.0526 18.8359 14.9787C18.5581 15.9048 18.0513 16.7458 17.3624 17.4241C16.6734 18.1024 15.8245 18.5961 14.8942 18.8594C13.9639 19.1227 12.9823 19.1471 12.04 18.9305C11.0978 18.7139 10.2254 18.2631 9.50345 17.62C8.78155 16.9769 8.23347 16.1621 7.90991 15.251C7.77128 14.8607 7.97533 14.4319 8.36566 14.2933C8.75599 14.1546 9.18479 14.3587 9.32341 14.749C9.56257 15.4224 9.96767 16.0247 10.5012 16.5C11.0348 16.9754 11.6797 17.3085 12.3761 17.4686C13.0725 17.6287 13.7981 17.6107 14.4857 17.4161C15.1733 17.2214 15.8008 16.8566 16.31 16.3552C16.8192 15.8539 17.1938 15.2322 17.3992 14.5477C17.6045 13.8633 17.6339 13.138 17.4846 12.4392C17.3354 11.7403 17.0124 11.0904 16.5454 10.5494C16.0784 10.0085 15.4826 9.59407 14.813 9.34443C14.4249 9.19974 14.2275 8.7678 14.3722 8.37969Z" fill="#616161"/>
</g>
<defs>
<clipPath id="clip0_11_3761">
<rect width="20" height="20" fill="white"/>
</clipPath>
</defs>
</svg>
