<svg width="20" height="20" viewBox="0 0 20 20" fill="none" xmlns="http://www.w3.org/2000/svg">
<path fill-rule="evenodd" clip-rule="evenodd" d="M1.75 10C1.75 9.58579 2.08579 9.25 2.5 9.25H9.16667C9.58088 9.25 9.91667 9.58579 9.91667 10C9.91667 10.4142 9.58088 10.75 9.16667 10.75H2.5C2.08579 10.75 1.75 10.4142 1.75 10Z" fill="#616161"/>
<path fill-rule="evenodd" clip-rule="evenodd" d="M1.75 5C1.75 4.58579 2.08579 4.25 2.5 4.25H13.3333C13.7475 4.25 14.0833 4.58579 14.0833 5C14.0833 5.41421 13.7475 5.75 13.3333 5.75H2.5C2.08579 5.75 1.75 5.41421 1.75 5Z" fill="#616161"/>
<path fill-rule="evenodd" clip-rule="evenodd" d="M1.75 15C1.75 14.5858 2.08579 14.25 2.5 14.25H13.3333C13.7475 14.25 14.0833 14.5858 14.0833 15C14.0833 15.4142 13.7475 15.75 13.3333 15.75H2.5C2.08579 15.75 1.75 15.4142 1.75 15Z" fill="#616161"/>
<path fill-rule="evenodd" clip-rule="evenodd" d="M16.3637 7.80304C16.6566 8.09594 16.6566 8.57081 16.3637 8.8637L13.0303 12.197C12.7374 12.4899 12.2626 12.4899 11.9697 12.197C11.6768 11.9041 11.6768 11.4293 11.9697 11.1364L15.303 7.80304C15.5959 7.51015 16.0708 7.51015 16.3637 7.80304Z" fill="#616161"/>
<path fill-rule="evenodd" clip-rule="evenodd" d="M11.9697 7.80304C12.2626 7.51015 12.7374 7.51015 13.0303 7.80304L16.3637 11.1364C16.6566 11.4293 16.6566 11.9041 16.3637 12.197C16.0708 12.4899 15.5959 12.4899 15.303 12.197L11.9697 8.8637C11.6768 8.57081 11.6768 8.09594 11.9697 7.80304Z" fill="#616161"/>
</svg>
