<svg width="19" height="19" viewBox="0 0 19 19" fill="none" xmlns="http://www.w3.org/2000/svg">
<path fill-rule="evenodd" clip-rule="evenodd" d="M9.08333 1.5C4.89517 1.5 1.5 4.89517 1.5 9.08333C1.5 13.2715 4.89517 16.6667 9.08333 16.6667C13.2715 16.6667 16.6667 13.2715 16.6667 9.08333C16.6667 4.89517 13.2715 1.5 9.08333 1.5ZM0 9.08333C0 4.06675 4.06675 0 9.08333 0C14.0999 0 18.1667 4.06675 18.1667 9.08333C18.1667 14.0999 14.0999 18.1667 9.08333 18.1667C4.06675 18.1667 0 14.0999 0 9.08333Z" fill="#1D2939" fill-opacity="0.5"/>
<path fill-rule="evenodd" clip-rule="evenodd" d="M12.1136 7.11358C12.4065 6.82069 12.4065 6.34582 12.1136 6.05292C11.8207 5.76003 11.3458 5.76003 11.0529 6.05292L9.08325 8.02259L7.11358 6.05292C6.82069 5.76003 6.34582 5.76003 6.05292 6.05292C5.76003 6.34582 5.76003 6.82069 6.05292 7.11358L8.02259 9.08325L6.05292 11.0529C5.76003 11.3458 5.76003 11.8207 6.05292 12.1136C6.34582 12.4065 6.82069 12.4065 7.11358 12.1136L9.08325 10.1439L11.0529 12.1136C11.3458 12.4065 11.8207 12.4065 12.1136 12.1136C12.4065 11.8207 12.4065 11.3458 12.1136 11.0529L10.1439 9.08325L12.1136 7.11358Z" fill="#1D2939" fill-opacity="0.5"/>
</svg>
