<svg width="14" height="18" viewBox="0 0 14 18" fill="none" xmlns="http://www.w3.org/2000/svg">
<path fill-rule="evenodd" clip-rule="evenodd" d="M7 2.25C5.60761 2.25 4.27226 2.80312 3.28769 3.78769C2.30312 4.77226 1.75 6.10761 1.75 7.5C1.75 9.45373 3.07785 11.5212 4.56056 13.1892C5.28432 14.0035 6.01041 14.6844 6.55638 15.1621C6.72339 15.3083 6.87304 15.4349 7 15.5401C7.12696 15.4349 7.27661 15.3083 7.44362 15.1621C7.98959 14.6844 8.71568 14.0035 9.43944 13.1892C10.9221 11.5212 12.25 9.45373 12.25 7.5C12.25 6.10761 11.6969 4.77226 10.7123 3.78769C9.72775 2.80312 8.39239 2.25 7 2.25ZM7 16.5C6.55 17.1 6.54984 17.0999 6.54965 17.0997L6.54916 17.0994L6.54778 17.0983L6.54338 17.095L6.52818 17.0835C6.51526 17.0736 6.49681 17.0595 6.47319 17.0412C6.42596 17.0046 6.35804 16.9513 6.27239 16.8825C6.10116 16.7449 5.85867 16.5448 5.56862 16.291C4.98959 15.7843 4.21568 15.059 3.43944 14.1858C1.92215 12.4788 0.25 10.0463 0.25 7.5C0.25 5.70979 0.961159 3.9929 2.22703 2.72703C3.4929 1.46116 5.20979 0.75 7 0.75C8.79021 0.75 10.5071 1.46116 11.773 2.72703C13.0388 3.9929 13.75 5.70979 13.75 7.5C13.75 10.0463 12.0779 12.4788 10.5606 14.1858C9.78432 15.059 9.01041 15.7843 8.43138 16.291C8.14133 16.5448 7.89884 16.7449 7.72761 16.8825C7.64196 16.9513 7.57404 17.0046 7.52681 17.0412C7.50319 17.0595 7.48474 17.0736 7.47182 17.0835L7.45662 17.095L7.45222 17.0983L7.45084 17.0994L7.45035 17.0997C7.45016 17.0999 7.45 17.1 7 16.5ZM7 16.5L7.45 17.1C7.18333 17.3 6.81667 17.3 6.55 17.1L7 16.5Z" fill="black"/>
<path fill-rule="evenodd" clip-rule="evenodd" d="M7 6C6.17157 6 5.5 6.67157 5.5 7.5C5.5 8.32843 6.17157 9 7 9C7.82843 9 8.5 8.32843 8.5 7.5C8.5 6.67157 7.82843 6 7 6ZM4 7.5C4 5.84315 5.34315 4.5 7 4.5C8.65685 4.5 10 5.84315 10 7.5C10 9.15685 8.65685 10.5 7 10.5C5.34315 10.5 4 9.15685 4 7.5Z" fill="black"/>
</svg>
