<svg width="20" height="20" viewBox="0 0 20 20" fill="none" xmlns="http://www.w3.org/2000/svg">
<path fill-rule="evenodd" clip-rule="evenodd" d="M13.2602 9.1202C13.4137 8.32501 13.4941 7.50377 13.4941 6.66374V0.900452H0.611492V19.5464C3.73119 19.5464 6.59189 18.4375 8.82092 16.5923C11.0447 18.0738 14.6105 19.4821 18.9187 18.6988C17.7321 18.1903 13.1554 15.1391 13.3249 9.03683C13.3042 9.06527 13.2827 9.09305 13.2602 9.1202Z" fill="#F9FAFB"/>
<path d="M13.2602 9.1202L13.4638 9.28851L13.0009 9.07014L13.2602 9.1202ZM13.4941 0.900452V0.636327H13.7583V0.900452H13.4941ZM0.611492 0.900452H0.347368V0.636327H0.611492V0.900452ZM0.611492 19.5464V19.8105H0.347368V19.5464H0.611492ZM8.82092 16.5923L8.6525 16.3889L8.80385 16.2636L8.96737 16.3725L8.82092 16.5923ZM18.9187 18.6988L19.0227 18.456L19.8293 18.8017L18.9659 18.9587L18.9187 18.6988ZM13.3249 9.03683L13.1113 8.88147L13.6126 8.1922L13.5889 9.04416L13.3249 9.03683ZM13.7583 6.66374C13.7583 7.52066 13.6762 8.35867 13.5195 9.17027L13.0009 9.07014C13.1512 8.29136 13.23 7.48688 13.23 6.66374H13.7583ZM13.7583 0.900452V6.66374H13.23V0.900452H13.7583ZM0.611492 0.636327H13.4941V1.16458H0.611492V0.636327ZM0.347368 19.5464V0.900452H0.875618V19.5464H0.347368ZM8.98934 16.7958C6.7147 18.6787 3.79492 19.8105 0.611492 19.8105V19.2822C3.66746 19.2822 6.46908 18.1962 8.6525 16.3889L8.98934 16.7958ZM18.9659 18.9587C14.5736 19.7573 10.9392 18.3209 8.67448 16.8121L8.96737 16.3725C11.1502 17.8267 14.6474 19.2069 18.8715 18.4389L18.9659 18.9587ZM13.5889 9.04416C13.5062 12.0224 14.5802 14.2513 15.8195 15.8005C17.064 17.3561 18.4699 18.2191 19.0227 18.456L18.8147 18.9416C18.1809 18.67 16.7052 17.7531 15.407 16.1305C14.1037 14.5014 12.9741 12.1535 13.0609 9.02949L13.5889 9.04416ZM13.0567 8.9519C13.0757 8.92889 13.0939 8.90542 13.1113 8.88147L13.5385 9.19218C13.5146 9.22512 13.4896 9.25722 13.4638 9.28851L13.0567 8.9519Z" fill="#F9FAFB"/>
</svg>
