<svg width="20" height="20" viewBox="0 0 20 20" fill="none" xmlns="http://www.w3.org/2000/svg">
<path fill-rule="evenodd" clip-rule="evenodd" d="M6.65849 8.57382C6.50497 7.77863 6.42457 6.95738 6.42457 6.11736V0.354065H19.3072V19C16.1875 19 13.3268 17.8911 11.0978 16.0459C8.87402 17.5274 5.30817 18.9357 1 18.1524C2.18656 17.6439 6.76329 14.5927 6.59378 8.49044C6.61446 8.51888 6.63604 8.54667 6.65849 8.57382Z" fill="#D3E9FF"/>
<path d="M6.65849 8.57382L6.45494 8.74212L6.91783 8.52375L6.65849 8.57382ZM6.42457 0.354065V0.0899403H6.16044V0.354065H6.42457ZM19.3072 0.354065H19.5713V0.0899403H19.3072V0.354065ZM19.3072 19V19.2641H19.5713V19H19.3072ZM11.0978 16.0459L11.2662 15.8425L11.1148 15.7172L10.9513 15.8261L11.0978 16.0459ZM1 18.1524L0.895956 17.9096L0.08941 18.2553L0.952752 18.4123L1 18.1524ZM6.59378 8.49044L6.80738 8.33509L6.30609 7.64581L6.32975 8.49777L6.59378 8.49044ZM6.16044 6.11736C6.16044 6.97427 6.24246 7.81228 6.39916 8.62389L6.91783 8.52375C6.76747 7.74497 6.68869 6.94049 6.68869 6.11736H6.16044ZM6.16044 0.354065V6.11736H6.68869V0.354065H6.16044ZM19.3072 0.0899403H6.42457V0.61819H19.3072V0.0899403ZM19.5713 19V0.354065H19.0431V19H19.5713ZM10.9294 16.2494C13.204 18.1323 16.1238 19.2641 19.3072 19.2641V18.7359C16.2512 18.7359 13.4496 17.6499 11.2662 15.8425L10.9294 16.2494ZM0.952752 18.4123C5.34505 19.2109 8.97954 17.7745 11.2442 16.2657L10.9513 15.8261C8.7685 17.2804 5.27129 18.6606 1.04725 17.8926L0.952752 18.4123ZM6.32975 8.49777C6.41248 11.476 5.3385 13.7049 4.09917 15.2541C2.85465 16.8097 1.44877 17.6727 0.895956 17.9096L1.10404 18.3952C1.73778 18.1236 3.21355 17.2067 4.51166 15.5841C5.81496 13.955 6.94458 11.6072 6.8578 8.4831L6.32975 8.49777ZM6.86205 8.40551C6.84302 8.3825 6.8248 8.35903 6.80738 8.33509L6.38017 8.64579C6.40413 8.67873 6.42906 8.71083 6.45494 8.74212L6.86205 8.40551Z" fill="#D3E9FF"/>
</svg>