<svg width="122" height="50" viewBox="0 0 122 50" fill="none" xmlns="http://www.w3.org/2000/svg">
<path d="M10.3335 23.9141C10.3335 26.2054 10.8508 28.1763 11.8822 29.8202C12.9136 31.4674 14.3016 32.7305 16.0399 33.6064C17.7814 34.4855 19.6642 34.9203 21.6949 34.9203C24.3778 34.9203 26.6334 34.4189 28.4648 33.416C30.2962 32.4131 31.8289 31.2516 33.0595 29.925V39.8078C31.5365 40.9535 29.8689 41.8675 28.0567 42.5467C26.2446 43.2258 23.944 43.5686 21.1519 43.5686C17.0906 43.5686 13.4855 42.7466 10.3303 41.0963C7.1783 39.4492 4.71388 37.1483 2.93385 34.1967C1.16345 31.2421 0.273438 27.8145 0.273438 23.9141C0.273438 20.0136 1.16345 16.5829 2.93706 13.6314C4.71388 10.6767 7.1783 8.37577 10.3335 6.73181C13.4855 5.08468 17.0938 4.25952 21.1551 4.25952C23.9472 4.25952 26.2478 4.5991 28.06 5.28144C29.8721 5.96378 31.5397 6.87462 33.0627 8.02032V17.9031C31.8289 16.5416 30.2995 15.3705 28.468 14.3867C26.6366 13.4029 24.381 12.9109 21.6981 12.9109C19.6707 12.9109 17.7846 13.3489 16.0431 14.2248C14.3016 15.1039 12.9168 16.3639 11.8854 18.011C10.8508 19.6582 10.3367 21.6258 10.3367 23.9172L10.3335 23.9141Z" fill="#790DE4"/>
<path d="M38.6348 0.818359H46.8988V42.7076H38.6348V0.818359Z" fill="#790DE4"/>
<path d="M52.7676 8.7654C52.7676 7.47689 53.2303 6.42006 54.1556 5.59808C55.081 4.7761 56.212 4.36353 57.5518 4.36353C58.8917 4.36353 60.0259 4.7761 60.948 5.59808C61.8702 6.42006 62.3361 7.48007 62.3361 8.7654C62.3361 10.0507 61.8734 11.1107 60.948 11.9327C60.0259 12.7547 58.8917 13.1673 57.5518 13.1673C56.212 13.1673 55.0778 12.7547 54.1556 11.9327C53.2335 11.1107 52.7676 10.0539 52.7676 8.7654ZM53.5291 18.004H61.5232V42.7078H53.5291V18.004Z" fill="#790DE4"/>
<path d="M96.865 25.5672C96.865 28.4679 96.2963 30.8926 95.1524 32.8444C94.0086 34.7962 92.5338 36.272 90.7216 37.2749C88.9094 38.2778 86.988 38.7792 84.9574 38.7792C83.036 38.7792 81.3588 38.3603 79.929 37.5161C78.4991 36.675 77.3457 35.504 76.4749 33.9996V49.7347H68.2109V13.2153H76.4749V17.1348C77.3457 15.6305 78.4959 14.4594 79.929 13.6183C81.3588 12.7773 83.0392 12.3552 84.9574 12.3552C86.988 12.3552 88.9094 12.8471 90.7216 13.831C92.5338 14.8148 94.0118 16.2937 95.1524 18.2614C96.2963 20.2323 96.865 22.6665 96.865 25.5672ZM88.2219 25.5672C88.2219 23.6344 87.6339 22.1492 86.4547 21.1114C85.2755 20.0736 83.8714 19.5531 82.2391 19.5531C81.3331 19.5531 80.4366 19.7753 79.5466 20.2227C78.6566 20.6702 77.924 21.3335 77.3457 22.2095C76.7673 23.0886 76.4749 24.2057 76.4749 25.564C76.4749 26.9224 76.7641 27.9982 77.3457 28.8932C77.924 29.7882 78.6598 30.4578 79.5466 30.9053C80.4366 31.3528 81.3298 31.575 82.2391 31.575C83.8714 31.575 85.2755 31.0545 86.4547 30.0167C87.6339 28.9789 88.2219 27.4936 88.2219 25.5609V25.5672Z" fill="#790DE4"/>
<path fill-rule="evenodd" clip-rule="evenodd" d="M107.404 39.9834C105.085 39.9834 103.189 41.8427 103.189 44.155C103.189 46.4674 105.085 48.3267 107.404 48.3267C109.723 48.3267 111.618 46.4674 111.618 44.155C111.618 41.8427 109.723 39.9834 107.404 39.9834Z" fill="#790DE4"/>
<path fill-rule="evenodd" clip-rule="evenodd" d="M115.511 2.71715C119.784 3.53596 122.686 7.64903 121.869 11.8764L117.005 36.5611C116.838 37.4307 115.986 38.002 115.106 37.837C114.226 37.6719 113.647 36.8309 113.814 35.9613L118.579 11.2448C119.058 8.75347 117.41 6.34783 114.891 5.86543C112.368 5.38303 109.926 7.01113 109.435 9.50563L105.859 27.6527L105.39 30.0297C105.107 31.4611 106.052 32.8448 107.501 33.1241C108.84 33.3811 110.142 32.5147 110.402 31.1913L110.704 29.6616L113.442 15.7641C113.509 15.4309 113.287 15.104 112.947 15.0405C112.722 14.9961 112.507 15.1421 112.462 15.3642L110.167 26.9989C109.997 27.8685 109.142 28.4366 108.265 28.2684C107.385 28.1001 106.81 27.256 106.983 26.3864L109.277 14.7517C109.663 12.7904 111.584 11.5114 113.57 11.8922C115.668 12.2953 117.037 14.3042 116.629 16.3766L114.094 29.2395L113.589 31.807C112.985 34.8728 109.981 36.8722 106.881 36.2787C103.674 35.663 101.579 32.5909 102.206 29.4236L102.675 27.0465L106.251 8.89946C107.086 4.66896 111.228 1.90469 115.511 2.7235V2.71715Z" fill="#790DE4"/>
</svg>
