<svg width="71" height="29" viewBox="0 0 71 29" fill="none" xmlns="http://www.w3.org/2000/svg">
<path d="M5.82426 13.3711C5.82426 14.6977 6.12375 15.8387 6.72087 16.7905C7.31799 17.7441 8.12159 18.4754 9.12796 18.9825C10.1362 19.4915 11.2263 19.7432 12.4019 19.7432C13.9552 19.7432 15.261 19.4529 16.3213 18.8723C17.3816 18.2916 18.2689 17.6192 18.9814 16.8511V22.5728C18.0997 23.2361 17.1342 23.7652 16.0851 24.1584C15.0359 24.5516 13.704 24.7501 12.0875 24.7501C9.73624 24.7501 7.6491 24.2742 5.8224 23.3187C3.99755 22.3651 2.57078 21.033 1.54024 19.3243C0.515273 17.6137 0 15.6293 0 13.3711C0 11.113 0.515273 9.12676 1.5421 7.41799C2.57078 5.70738 3.99755 4.37528 5.82426 3.42351C7.6491 2.46991 9.7381 1.99219 12.0894 1.99219C13.7059 1.99219 15.0378 2.18879 16.0869 2.58383C17.1361 2.97886 18.1015 3.50619 18.9832 4.16949V9.89112C18.2689 9.10288 17.3835 8.42488 16.3232 7.85529C15.2629 7.2857 13.957 7.0009 12.4038 7.0009C11.23 7.0009 10.138 7.25446 9.12982 7.76158C8.12159 8.27054 7.31985 8.99998 6.72273 9.95359C6.12375 10.9072 5.82612 12.0464 5.82612 13.373L5.82426 13.3711Z" fill="#790DE4"/>
<path d="M22.209 0H26.9934V24.2517H22.209V0Z" fill="#790DE4"/>
<path d="M30.3916 4.60119C30.3916 3.85521 30.6595 3.24336 31.1952 2.76748C31.7309 2.29159 32.3857 2.05273 33.1614 2.05273C33.9371 2.05273 34.5938 2.29159 35.1276 2.76748C35.6615 3.24336 35.9313 3.85705 35.9313 4.60119C35.9313 5.34533 35.6634 5.95902 35.1276 6.4349C34.5938 6.91079 33.9371 7.14965 33.1614 7.14965C32.3857 7.14965 31.7291 6.91079 31.1952 6.4349C30.6613 5.95902 30.3916 5.34717 30.3916 4.60119ZM30.8325 9.94982H35.4606V24.252H30.8325V9.94982Z" fill="#790DE4"/>
<path d="M55.9212 14.3282C55.9212 16.0076 55.592 17.4114 54.9297 18.5414C54.2675 19.6714 53.4137 20.5257 52.3645 21.1064C51.3154 21.687 50.203 21.9773 49.0273 21.9773C47.915 21.9773 46.9439 21.7347 46.1161 21.246C45.2884 20.7591 44.6206 20.0811 44.1164 19.2102V28.3199H39.332V7.17713H44.1164V9.4463C44.6206 8.57538 45.2865 7.89739 46.1161 7.41048C46.9439 6.92357 47.9168 6.6792 49.0273 6.6792C50.203 6.6792 51.3154 6.96399 52.3645 7.53358C53.4137 8.10317 54.2694 8.9594 54.9297 10.0986C55.592 11.2396 55.9212 12.6489 55.9212 14.3282ZM50.9173 14.3282C50.9173 13.2093 50.5769 12.3494 49.8942 11.7485C49.2115 11.1477 48.3986 10.8464 47.4536 10.8464C46.9291 10.8464 46.4101 10.975 45.8948 11.2341C45.3795 11.4932 44.9554 11.8772 44.6206 12.3843C44.2857 12.8932 44.1164 13.54 44.1164 14.3264C44.1164 15.1128 44.2839 15.7357 44.6206 16.2538C44.9554 16.772 45.3814 17.1597 45.8948 17.4187C46.4101 17.6778 46.9272 17.8064 47.4536 17.8064C48.3986 17.8064 49.2115 17.5051 49.8942 16.9043C50.5769 16.3034 50.9173 15.4435 50.9173 14.3246V14.3282Z" fill="#790DE4"/>
<path fill-rule="evenodd" clip-rule="evenodd" d="M62.0229 22.6743C60.6803 22.6743 59.583 23.7507 59.583 25.0895C59.583 26.4282 60.6803 27.5046 62.0229 27.5046C63.3655 27.5046 64.4628 26.4282 64.4628 25.0895C64.4628 23.7507 63.3655 22.6743 62.0229 22.6743Z" fill="#790DE4"/>
<path fill-rule="evenodd" clip-rule="evenodd" d="M66.7164 1.09952C69.1905 1.57357 70.8702 3.95482 70.3977 6.40222L67.5814 20.6934C67.4847 21.1969 66.9917 21.5276 66.482 21.432C65.9723 21.3365 65.6375 20.8496 65.7342 20.3461L68.4929 6.03658C68.7701 4.59423 67.8158 3.20149 66.3574 2.92221C64.8971 2.64292 63.4834 3.5855 63.1988 5.02969L61.1284 15.5359L60.8568 16.9121C60.6931 17.7407 61.24 18.5418 62.0789 18.7035C62.8546 18.8524 63.608 18.3507 63.7587 17.5846L63.9336 16.6989L65.5184 8.65302C65.5575 8.46009 65.4292 8.27084 65.232 8.23409C65.1018 8.20837 64.9771 8.29289 64.9511 8.42151L63.6229 15.1574C63.5243 15.6608 63.0295 15.9897 62.5217 15.8923C62.012 15.7949 61.679 15.3062 61.7795 14.8027L63.1076 8.06689C63.3309 6.93139 64.4432 6.19092 65.5928 6.41141C66.8076 6.64475 67.6 7.80782 67.3638 9.00763L65.8961 16.4546L65.604 17.941C65.2543 19.7159 63.515 20.8735 61.7199 20.5299C59.8635 20.1734 58.6506 18.3948 59.0134 16.5611L59.2849 15.1849L61.3553 4.67875C61.839 2.22951 64.2368 0.629148 66.7164 1.10319V1.09952Z" fill="#790DE4"/>
</svg>
