<svg width="360" height="74" viewBox="0 0 360 74" fill="none" xmlns="http://www.w3.org/2000/svg">
<g filter="url(#filter0_d_13_1979)">
<rect width="360" height="66" transform="translate(0 6)" fill="white"/>
<rect x="16" y="14" width="329" height="44" rx="4" fill="#252525"/>
<g clip-path="url(#clip0_13_1979)">
<path d="M122.377 22H104.623C101.793 22 99.5 24.2935 99.5 27.1226V44.8774C99.5 47.7065 101.793 50 104.623 50H122.377C125.207 50 127.5 47.7065 127.5 44.8774V27.1226C127.5 24.2935 125.207 22 122.377 22Z" fill="#FFDA00"/>
<path d="M113.501 26.3611C108.467 26.3611 104.386 30.1357 104.386 34.7921C104.386 38.2304 105.826 39.8723 107.798 41.3693L107.808 41.3734V45.4092C107.808 45.5992 108.025 45.7086 108.179 45.5951L111.635 43.0277L111.708 43.0605C112.288 43.1671 112.887 43.2232 113.499 43.2232C118.533 43.2232 122.614 39.4485 122.614 34.7921C122.614 30.1357 118.533 26.3611 113.499 26.3611M110.445 36.9276C111.339 36.9276 112.104 36.393 112.333 35.5659H113.655C113.333 37.1559 112.094 38.199 110.447 38.199C108.531 38.199 107.012 36.7703 107.012 34.7825C107.012 32.7948 108.531 31.3661 110.447 31.3661C112.112 31.3661 113.357 32.4297 113.665 34.047H112.347C112.146 33.168 111.356 32.6198 110.447 32.6198C109.159 32.6198 108.302 33.5385 108.302 34.7839C108.302 36.0294 109.276 36.9303 110.447 36.9303M119.152 38.0677H117.941V35.3362C117.941 34.7074 117.575 34.3697 117.011 34.3697C116.383 34.3697 115.979 34.7538 115.979 35.5331V38.0677H114.768V31.3866H115.979V33.8994C116.27 33.4578 116.739 33.2418 117.378 33.2418C117.895 33.2418 118.317 33.4113 118.645 33.7586C118.983 34.1058 119.152 34.5747 119.152 35.1858V38.0677Z" fill="#252525"/>
</g>
<path d="M148.359 33.5156C148.359 35.6562 149.125 37.8281 151.172 38.9062L150.062 40.375C148.781 39.7188 147.93 38.5703 147.438 37.1719C146.938 38.6953 146.086 39.9688 144.797 40.7031L143.672 39.2031C145.688 38.0469 146.469 35.7188 146.484 33.5156V33.25H144.125V31.625H146.484V29.7031H148.344V31.625H150.688V33.25H148.359V33.5156ZM156.328 29.2188V43.4375H154.422V36.3125H153.219V42.7812H151.328V29.4219H153.219V34.6875H154.422V29.2188H156.328ZM160.516 29.8125V34.4219C162.289 34.4062 164.102 34.2734 166.016 33.9375L166.281 35.5469C163.953 35.9688 161.828 36.0938 159.719 36.0781H158.547V29.8125H160.516ZM169.734 29.2188V36.4219H167.75V32.8125H164.234V31.2188H167.75V29.2188H169.734ZM169.734 36.9531V40.8281H162.297V41.6875H170.078V43.2812H160.297V39.3125H167.734V38.5156H160.281V36.9531H169.734ZM188.234 37.7344V39.3594H182.719V43.4531H180.75V39.3594H175.266V37.7344H188.234ZM187.047 30.8594V32.4219H182.781C183.008 33.6719 184.609 35.0781 187.547 35.4062L186.828 36.9688C184.422 36.6953 182.68 35.7109 181.75 34.4062C180.828 35.7266 179.07 36.6953 176.641 36.9688L175.922 35.4062C178.859 35.0781 180.477 33.6797 180.719 32.4219H176.438V30.8594H180.75V29.2344H182.719V30.8594H187.047ZM200.312 29.2188V34.6719H202.328V36.3125H200.312V43.4062H198.312V29.2188H200.312ZM196.516 30.6719C196.5 34.9219 194.844 38.6094 190.062 40.9531L188.938 39.4219C192.305 37.7344 194.109 35.4688 194.484 32.2969H189.75V30.6719H196.516ZM217.828 29.2188V34.5312H219.922V36.2031H217.828V43.4375H215.828V29.2188H217.828ZM209.047 30.3438V33.8125H212V30.3438H213.984V40.1406H207.062V30.3438H209.047ZM209.047 38.5312H212V35.3594H209.047V38.5312ZM233.453 40.2188V41.8594H220.438V40.2188H225.922V38.0781H221.938V33.2969H229.984V31.7344H221.922V30.1406H231.953V34.8594H223.938V36.4531H232.281V38.0781H227.906V40.2188H233.453ZM245.484 29.2188V34.6719H247.5V36.3125H245.484V43.4062H243.484V29.2188H245.484ZM241.688 30.6719C241.672 34.9219 240.016 38.6094 235.234 40.9531L234.109 39.4219C237.477 37.7344 239.281 35.4688 239.656 32.2969H234.922V30.6719H241.688ZM260.047 29.2188V43.4375H258.031V29.2188H260.047ZM255.781 30.7031C255.781 35.0156 254.266 38.5938 249.188 41L248.141 39.4062C251.812 37.6719 253.43 35.4219 253.75 32.2656H248.906V30.7031H255.781Z" fill="white"/>
</g>
<defs>
<filter id="filter0_d_13_1979" x="-4" y="0" width="368" height="74" filterUnits="userSpaceOnUse" color-interpolation-filters="sRGB">
<feFlood flood-opacity="0" result="BackgroundImageFix"/>
<feColorMatrix in="SourceAlpha" type="matrix" values="0 0 0 0 0 0 0 0 0 0 0 0 0 0 0 0 0 0 127 0" result="hardAlpha"/>
<feOffset dy="-2"/>
<feGaussianBlur stdDeviation="2"/>
<feComposite in2="hardAlpha" operator="out"/>
<feColorMatrix type="matrix" values="0 0 0 0 0 0 0 0 0 0 0 0 0 0 0 0 0 0 0.1 0"/>
<feBlend mode="normal" in2="BackgroundImageFix" result="effect1_dropShadow_13_1979"/>
<feBlend mode="normal" in="SourceGraphic" in2="effect1_dropShadow_13_1979" result="shape"/>
</filter>
<clipPath id="clip0_13_1979">
<rect width="28" height="28" fill="white" transform="translate(99.5 22)"/>
</clipPath>
</defs>
</svg>
