<svg width="34" height="34" viewBox="0 0 34 34" fill="none" xmlns="http://www.w3.org/2000/svg">
<path fill-rule="evenodd" clip-rule="evenodd" d="M17 3.66665C9.6362 3.66665 3.66666 9.63618 3.66666 17C3.66666 24.3638 9.6362 30.3333 17 30.3333C24.3638 30.3333 30.3333 24.3638 30.3333 17C30.3333 9.63618 24.3638 3.66665 17 3.66665ZM0.333328 17C0.333328 7.79523 7.79525 0.333313 17 0.333313C26.2047 0.333313 33.6667 7.79523 33.6667 17C33.6667 26.2047 26.2047 33.6666 17 33.6666C7.79525 33.6666 0.333328 26.2047 0.333328 17ZM16.714 8.26224C17.6345 8.26224 18.3807 9.00844 18.3807 9.92891V18.2075L24.2589 20.4421C25.1193 20.7692 25.5516 21.7318 25.2246 22.5922C24.8975 23.4526 23.9348 23.885 23.0744 23.5579L16.1218 20.9149C15.475 20.669 15.0474 20.049 15.0474 19.357V9.92891C15.0474 9.00844 15.7936 8.26224 16.714 8.26224Z" fill="#252525"/>
</svg>
