<svg width="40" height="40" viewBox="0 0 40 40" fill="none" xmlns="http://www.w3.org/2000/svg">
<path d="M22.5492 13.9197C21.5951 14.5999 20.4276 15 19.1667 15C15.945 15 13.3333 12.3883 13.3333 9.16665C13.3333 5.94499 15.945 3.33331 19.1667 3.33331C21.255 3.33331 23.087 4.43068 24.1175 6.08022M10 33.4786H14.3505C14.9177 33.4786 15.4815 33.5461 16.0314 33.6811L20.6282 34.7981C21.6256 35.0411 22.6646 35.0647 23.6725 34.869L28.755 33.8802C30.0976 33.6186 31.3326 32.9757 32.3006 32.0342L35.8965 28.5362C36.9234 27.5389 36.9234 25.9207 35.8965 24.9218C34.9719 24.0224 33.5079 23.9211 32.4619 24.6838L28.271 27.7414C27.6708 28.1801 26.9405 28.4164 26.1894 28.4164H22.1425L24.7185 28.4163C26.1704 28.4163 27.3464 27.2722 27.3464 25.8598V25.3486C27.3464 24.1758 26.526 23.1532 25.3568 22.8698L21.381 21.9029C20.734 21.746 20.0713 21.6666 19.4052 21.6666C17.7972 21.6666 14.8865 22.998 14.8865 22.998L10 25.0414M33.3333 10.8333C33.3333 14.055 30.7217 16.6666 27.5 16.6666C24.2783 16.6666 21.6667 14.055 21.6667 10.8333C21.6667 7.61165 24.2783 4.99998 27.5 4.99998C30.7217 4.99998 33.3333 7.61165 33.3333 10.8333ZM3.33334 24.3333L3.33334 34C3.33334 34.9334 3.33334 35.4001 3.515 35.7566C3.67479 36.0702 3.92976 36.3252 4.24336 36.485C4.59988 36.6666 5.06659 36.6666 6.00001 36.6666H7.33334C8.26676 36.6666 8.73347 36.6666 9.08999 36.485C9.4036 36.3252 9.65857 36.0702 9.81835 35.7566C10 35.4001 10 34.9334 10 34V24.3333C10 23.3999 10 22.9332 9.81835 22.5767C9.65857 22.2631 9.4036 22.0081 9.08999 21.8483C8.73348 21.6666 8.26677 21.6666 7.33334 21.6666L6.00001 21.6666C5.06659 21.6666 4.59988 21.6666 4.24336 21.8483C3.92976 22.0081 3.67479 22.2631 3.515 22.5767C3.33334 22.9332 3.33334 23.3999 3.33334 24.3333Z" stroke="#252525" stroke-width="3" stroke-linecap="round" stroke-linejoin="round"/>
</svg>
