<svg width="21" height="21" viewBox="0 0 21 21" fill="none" xmlns="http://www.w3.org/2000/svg">
<path d="M17.5 7H3.5C3.01675 7 2.625 7.39175 2.625 7.875V9.625C2.625 10.1082 3.01675 10.5 3.5 10.5H17.5C17.9832 10.5 18.375 10.1082 18.375 9.625V7.875C18.375 7.39175 17.9832 7 17.5 7Z" stroke="white" stroke-width="1.75" stroke-linecap="round" stroke-linejoin="round"/>
<path d="M10.5 7V18.375" stroke="white" stroke-width="1.75" stroke-linecap="round" stroke-linejoin="round"/>
<path d="M16.625 10.5V16.625C16.625 17.0891 16.4406 17.5342 16.1124 17.8624C15.7842 18.1906 15.3391 18.375 14.875 18.375H6.125C5.66087 18.375 5.21575 18.1906 4.88756 17.8624C4.55937 17.5342 4.375 17.0891 4.375 16.625V10.5" stroke="white" stroke-width="1.75" stroke-linecap="round" stroke-linejoin="round"/>
<path d="M6.5625 6.99989C5.98234 6.99989 5.42594 6.76943 5.0157 6.35919C4.60547 5.94895 4.375 5.39256 4.375 4.81239C4.375 4.23223 4.60547 3.67583 5.0157 3.2656C5.42594 2.85536 5.98234 2.62489 6.5625 2.62489C7.4066 2.61019 8.23377 3.01975 8.93614 3.80016C9.63852 4.58057 10.1835 5.69562 10.5 6.99989C10.8165 5.69562 11.3615 4.58057 12.0639 3.80016C12.7662 3.01975 13.5934 2.61019 14.4375 2.62489C15.0177 2.62489 15.5741 2.85536 15.9843 3.2656C16.3945 3.67583 16.625 4.23223 16.625 4.81239C16.625 5.39256 16.3945 5.94895 15.9843 6.35919C15.5741 6.76943 15.0177 6.99989 14.4375 6.99989" stroke="white" stroke-width="1.75" stroke-linecap="round" stroke-linejoin="round"/>
</svg>
