<svg width="329" height="44" viewBox="0 0 329 44" fill="none" xmlns="http://www.w3.org/2000/svg">
<rect width="329" height="44" rx="4" fill="#252525"/>
<g clip-path="url(#clip0_13_1980)">
<path d="M106.377 8H88.6226C85.7935 8 83.5 10.2935 83.5 13.1226V30.8774C83.5 33.7065 85.7935 36 88.6226 36H106.377C109.207 36 111.5 33.7065 111.5 30.8774V13.1226C111.5 10.2935 109.207 8 106.377 8Z" fill="#FFDA00"/>
<path d="M97.5007 12.3611C92.467 12.3611 88.3861 16.1357 88.3861 20.7921C88.3861 24.2304 89.8257 25.8723 91.7984 27.3693L91.808 27.3734V31.4092C91.808 31.5992 92.0254 31.7086 92.1785 31.5951L95.6346 29.0277L95.7084 29.0605C96.2881 29.1671 96.8869 29.2232 97.4993 29.2232C102.533 29.2232 106.614 25.4485 106.614 20.7921C106.614 16.1357 102.533 12.3611 97.4993 12.3611M94.4452 22.9276C95.3393 22.9276 96.1035 22.393 96.3332 21.5659H97.6552C97.3325 23.1559 96.0939 24.199 94.4466 24.199C92.5312 24.199 91.0123 22.7703 91.0123 20.7825C91.0123 18.7948 92.5312 17.3661 94.4466 17.3661C96.1117 17.3661 97.3572 18.4297 97.6648 20.047H96.3469C96.1459 19.168 95.3557 18.6198 94.4466 18.6198C93.1587 18.6198 92.3015 19.5385 92.3015 20.7839C92.3015 22.0294 93.2763 22.9303 94.4466 22.9303M103.152 24.0677H101.941V21.3362C101.941 20.7074 101.575 20.3697 101.011 20.3697C100.383 20.3697 99.9793 20.7538 99.9793 21.5331V24.0677H98.768V17.3866H99.9793V19.8994C100.27 19.4578 100.739 19.2418 101.378 19.2418C101.895 19.2418 102.317 19.4113 102.645 19.7586C102.983 20.1058 103.152 20.5747 103.152 21.1858V24.0677Z" fill="#252525"/>
</g>
<path d="M132.359 19.5156C132.359 21.6562 133.125 23.8281 135.172 24.9062L134.062 26.375C132.781 25.7188 131.93 24.5703 131.438 23.1719C130.938 24.6953 130.086 25.9688 128.797 26.7031L127.672 25.2031C129.688 24.0469 130.469 21.7188 130.484 19.5156V19.25H128.125V17.625H130.484V15.7031H132.344V17.625H134.688V19.25H132.359V19.5156ZM140.328 15.2188V29.4375H138.422V22.3125H137.219V28.7812H135.328V15.4219H137.219V20.6875H138.422V15.2188H140.328ZM144.516 15.8125V20.4219C146.289 20.4062 148.102 20.2734 150.016 19.9375L150.281 21.5469C147.953 21.9688 145.828 22.0938 143.719 22.0781H142.547V15.8125H144.516ZM153.734 15.2188V22.4219H151.75V18.8125H148.234V17.2188H151.75V15.2188H153.734ZM153.734 22.9531V26.8281H146.297V27.6875H154.078V29.2812H144.297V25.3125H151.734V24.5156H144.281V22.9531H153.734ZM172.234 23.7344V25.3594H166.719V29.4531H164.75V25.3594H159.266V23.7344H172.234ZM171.047 16.8594V18.4219H166.781C167.008 19.6719 168.609 21.0781 171.547 21.4062L170.828 22.9688C168.422 22.6953 166.68 21.7109 165.75 20.4062C164.828 21.7266 163.07 22.6953 160.641 22.9688L159.922 21.4062C162.859 21.0781 164.477 19.6797 164.719 18.4219H160.438V16.8594H164.75V15.2344H166.719V16.8594H171.047ZM184.312 15.2188V20.6719H186.328V22.3125H184.312V29.4062H182.312V15.2188H184.312ZM180.516 16.6719C180.5 20.9219 178.844 24.6094 174.062 26.9531L172.938 25.4219C176.305 23.7344 178.109 21.4688 178.484 18.2969H173.75V16.6719H180.516ZM201.828 15.2188V20.5312H203.922V22.2031H201.828V29.4375H199.828V15.2188H201.828ZM193.047 16.3438V19.8125H196V16.3438H197.984V26.1406H191.062V16.3438H193.047ZM193.047 24.5312H196V21.3594H193.047V24.5312ZM217.453 26.2188V27.8594H204.438V26.2188H209.922V24.0781H205.938V19.2969H213.984V17.7344H205.922V16.1406H215.953V20.8594H207.938V22.4531H216.281V24.0781H211.906V26.2188H217.453ZM229.484 15.2188V20.6719H231.5V22.3125H229.484V29.4062H227.484V15.2188H229.484ZM225.688 16.6719C225.672 20.9219 224.016 24.6094 219.234 26.9531L218.109 25.4219C221.477 23.7344 223.281 21.4688 223.656 18.2969H218.922V16.6719H225.688ZM244.047 15.2188V29.4375H242.031V15.2188H244.047ZM239.781 16.7031C239.781 21.0156 238.266 24.5938 233.188 27L232.141 25.4062C235.812 23.6719 237.43 21.4219 237.75 18.2656H232.906V16.7031H239.781Z" fill="white"/>
<defs>
<clipPath id="clip0_13_1980">
<rect width="28" height="28" fill="white" transform="translate(83.5 8)"/>
</clipPath>
</defs>
</svg>
