<svg width="28" height="28" viewBox="0 0 28 28" fill="none" xmlns="http://www.w3.org/2000/svg">
<g clip-path="url(#clip0_137_1758)">
<path d="M22.8774 0H5.1226C2.29347 0 0 2.29347 0 5.1226V22.8774C0 25.7065 2.29347 28 5.1226 28H22.8774C25.7065 28 28 25.7065 28 22.8774V5.1226C28 2.29347 25.7065 0 22.8774 0Z" fill="#FFDA00"/>
<path d="M14.0006 4.36108C8.96684 4.36108 4.88599 8.1357 4.88599 12.7921C4.88599 16.2304 6.32556 17.8723 8.29832 19.3693L8.30789 19.3734V23.4092C8.30789 23.5992 8.52526 23.7086 8.67838 23.5951L12.1345 21.0277L12.2083 21.0605C12.7879 21.1671 13.3867 21.2232 13.9992 21.2232C19.033 21.2232 23.1138 17.4485 23.1138 12.7921C23.1138 8.1357 19.033 4.36108 13.9992 4.36108M10.9451 14.9276C11.8392 14.9276 12.6034 14.393 12.8331 13.5659H14.1551C13.8324 15.1559 12.5938 16.199 10.9464 16.199C9.0311 16.199 7.51223 14.7703 7.51223 12.7825C7.51223 10.7948 9.0311 9.36611 10.9464 9.36611C12.6116 9.36611 13.857 10.4297 14.1646 12.047H12.8467C12.6458 11.168 11.8556 10.6198 10.9464 10.6198C9.6586 10.6198 8.80142 11.5385 8.80142 12.7839C8.80142 14.0294 9.77618 14.9303 10.9464 14.9303M19.6523 16.0677H18.441V13.3362C18.441 12.7074 18.0746 12.3697 17.5113 12.3697C16.8825 12.3697 16.4792 12.7538 16.4792 13.5331V16.0677H15.2679V9.38662H16.4792V11.8994C16.7704 11.4578 17.2393 11.2418 17.8777 11.2418C18.3945 11.2418 18.8169 11.4113 19.1451 11.7586C19.4827 12.1058 19.6523 12.5747 19.6523 13.1858V16.0677Z" fill="#252525"/>
</g>
<defs>
<clipPath id="clip0_137_1758">
<rect width="28" height="28" fill="white"/>
</clipPath>
</defs>
</svg>
