<svg width="360" height="728" viewBox="0 0 360 728" fill="none" xmlns="http://www.w3.org/2000/svg">
<g clip-path="url(#clip0_13_1798)">
<path d="M83.5859 99.2188V113.469H81.5703V99.2188H83.5859ZM75.8672 100.219C78.0078 100.219 79.6016 102.188 79.6016 105.281C79.6016 108.406 78.0078 110.359 75.8672 110.359C73.6797 110.359 72.0859 108.406 72.1016 105.281C72.0859 102.188 73.6797 100.219 75.8672 100.219ZM75.8672 102.016C74.7578 102.016 74.0234 103.172 74.0234 105.281C74.0234 107.406 74.7578 108.547 75.8672 108.547C76.9453 108.547 77.6797 107.406 77.6797 105.281C77.6797 103.172 76.9453 102.016 75.8672 102.016ZM97.8047 99.2188V113.438H95.9141V99.2188H97.8047ZM94.8984 99.4531V112.781H93.0234V105.703H91.1484V104.094H93.0234V99.4531H94.8984ZM90.0078 103.031C90.0078 105.391 90.7422 107.781 92.8203 108.969L91.6484 110.438C90.3828 109.688 89.5469 108.414 89.0703 106.891C88.5781 108.547 87.7188 109.953 86.4141 110.75L85.2109 109.281C87.3047 108 88.0859 105.438 88.0859 103.031V102.266H85.7578V100.672H92.1641V102.266H90.0078V103.031ZM114.492 99.7344V100.969C114.492 102.086 114.492 103.273 114.211 104.719H115.961V106.297H103.055V104.719H112.227C112.305 104.289 112.359 103.891 112.414 103.516L104.445 103.828L104.227 102.297L112.508 102.125V101.297H104.617V99.7344H114.492ZM114.555 107.141V110.875H106.461V111.75H115.055V113.281H104.477V109.438H112.57V108.656H104.461V107.141H114.555ZM128.758 99.2344V107.156H126.758V99.2344H128.758ZM124.18 99.8594V104.094H119.555V105.266C121.93 105.258 123.602 105.219 125.523 104.891L125.773 106.484C123.586 106.859 121.68 106.906 118.852 106.906H117.602V102.578H122.195V101.453H117.586V99.8594H124.18ZM121.227 107.75V108.969H126.773V107.75H128.758V113.281H119.242V107.75H121.227ZM121.227 111.688H126.773V110.516H121.227V111.688ZM142.586 99.2188V113.469H140.57V99.2188H142.586ZM134.867 100.219C137.008 100.219 138.602 102.188 138.602 105.281C138.602 108.406 137.008 110.359 134.867 110.359C132.68 110.359 131.086 108.406 131.102 105.281C131.086 102.188 132.68 100.219 134.867 100.219ZM134.867 102.016C133.758 102.016 133.023 103.172 133.023 105.281C133.023 107.406 133.758 108.547 134.867 108.547C135.945 108.547 136.68 107.406 136.68 105.281C136.68 103.172 135.945 102.016 134.867 102.016ZM160.086 99.2188V106.422H158.102V99.2188H160.086ZM160.102 107.031V110.891H152.539V111.766H160.492V113.344H150.586V109.406H158.117V108.578H150.555V107.031H160.102ZM153.648 100.625C153.633 102.344 154.664 104 156.992 104.672L156.023 106.203C154.391 105.727 153.266 104.742 152.633 103.484C151.977 104.859 150.812 105.953 149.117 106.453L148.133 104.891C150.508 104.188 151.57 102.391 151.57 100.625V99.5312H153.648V100.625ZM167.555 102.438C167.555 105.047 168.742 107.672 171.148 108.688L169.977 110.281C168.352 109.547 167.227 108.133 166.586 106.375C165.938 108.289 164.773 109.836 163.039 110.625L161.836 108.969C164.32 107.922 165.523 105.203 165.539 102.438V100.312H167.555V102.438ZM173.93 99.2188V113.469H171.914V99.2188H173.93ZM187.133 99.2188V103.203H189.055V104.844H187.133V109.406H185.117V99.2188H187.133ZM183.258 100.281C183.258 104.125 180.852 106.812 176.586 108.016L175.758 106.438C178.938 105.547 180.742 103.898 181.07 101.906H176.383V100.281H183.258ZM187.617 111.594V113.188H177.883V108.359H179.898V111.594H187.617ZM196.164 99.9375C199.164 99.9531 201.508 101.562 201.523 104.031C201.508 106.516 199.164 108.141 196.164 108.125C193.148 108.141 190.82 106.516 190.82 104.031C190.82 101.562 193.148 99.9531 196.164 99.9375ZM196.164 101.562C194.195 101.547 192.758 102.5 192.758 104.031C192.758 105.578 194.195 106.5 196.164 106.5C198.133 106.5 199.539 105.578 199.555 104.031C199.539 102.5 198.133 101.547 196.164 101.562ZM202.695 110.094V111.703H189.68V110.094H202.695ZM216.523 110.219V111.859H203.508V110.219H208.992V108.078H205.008V103.297H213.055V101.734H204.992V100.141H215.023V104.859H207.008V106.453H215.352V108.078H210.977V110.219H216.523ZM232.305 99.2188V101.969H234.227V103.609H232.305V106.328H230.305V99.2188H232.305ZM232.305 106.891V110.766H224.852V111.719H232.711V113.281H222.898V109.328H230.32V108.422H222.867V106.891H232.305ZM224.945 99.6406C227.133 99.6562 228.758 100.969 228.758 102.859C228.758 104.734 227.133 106.078 224.945 106.078C222.758 106.078 221.117 104.734 221.117 102.859C221.117 100.969 222.758 99.6562 224.945 99.6406ZM224.945 101.266C223.852 101.266 223.055 101.859 223.07 102.859C223.055 103.875 223.852 104.5 224.945 104.5C226.039 104.5 226.82 103.875 226.82 102.859C226.82 101.859 226.039 101.266 224.945 101.266ZM246.836 99.2188V113.469H244.852V107.734H242.414V106.094H244.852V103.859H242.461V102.234H244.852V99.2188H246.836ZM241.711 100.406V105.875H237.336V108.641C239.094 108.633 240.656 108.547 242.445 108.281L242.602 109.906C240.477 110.25 238.664 110.281 236.477 110.281H235.352V104.328H239.758V101.984H235.32V100.406H241.711ZM261.648 104.875V106.438H256.148V107.359H260.07V111H252.148V111.844H260.445V113.344H250.195V109.609H258.102V108.844H250.18V107.359H254.164V106.438H248.68V104.875H261.648ZM260.477 99.625V101.156H256.492C256.961 102.016 258.453 102.805 261.086 102.984L260.461 104.484C257.828 104.289 256.008 103.461 255.148 102.266C254.297 103.453 252.492 104.289 249.883 104.484L249.258 102.984C251.875 102.805 253.352 102.023 253.82 101.156H249.867V99.625H260.477ZM274.836 99.2188V113.438H272.961V99.2188H274.836ZM271.805 99.5312V112.812H269.945V106.281H267.617C266.805 107.906 265.484 109.312 263.461 110.484L262.336 109.078C265.203 107.375 266.469 105.305 266.742 102.516H263.117V100.906H268.727C268.719 102.258 268.578 103.531 268.242 104.703H269.945V99.5312H271.805ZM289.352 110.141V111.781H276.336V110.141H279.242V106.656C278.141 106 277.477 104.992 277.477 103.734C277.477 101.438 279.727 99.9062 282.82 99.9062C285.898 99.9062 288.164 101.438 288.18 103.734C288.172 104.961 287.523 105.961 286.461 106.625V110.141H289.352ZM282.82 101.484C280.789 101.484 279.445 102.297 279.445 103.734C279.445 105.125 280.789 105.984 282.82 105.984C284.836 105.984 286.195 105.125 286.211 103.734C286.195 102.297 284.836 101.484 282.82 101.484ZM281.211 110.141H284.445V107.375C283.938 107.477 283.391 107.531 282.82 107.531C282.25 107.531 281.711 107.484 281.211 107.375V110.141Z" fill="#252525"/>
<path d="M98.2288 49V69.496H94.1728V60.328H87.8368V56.536H94.1728V49H98.2288ZM87.0688 64.888C88.0608 64.888 89.0368 64.808 89.9968 64.648C90.9568 64.488 91.7488 64.272 92.3728 64V67.6C91.7648 67.888 90.9328 68.112 89.8768 68.272C88.8368 68.448 87.8048 68.536 86.7808 68.536H79.1248V49.48H91.1248V53.128H83.2528V64.888H87.0688ZM106.723 53.848H121.075V57.208H102.643V48.88H106.723V53.848ZM122.131 62.008H101.395V58.624H122.131V62.008ZM106.723 66.112H121.171V69.496H102.595V63.136H106.723V66.112ZM151.943 56.752V59.632H131.207V56.752H139.559V55.768H132.455V48.88H136.487V52.792H150.935V55.768H143.591V56.752H151.943ZM143.615 60.808H150.911V63.472H132.239V60.808H139.535V60.112H143.615V60.808ZM141.575 63.928C144.407 63.928 146.543 64.152 147.983 64.6C149.423 65.032 150.143 65.776 150.143 66.832C150.143 67.888 149.423 68.632 147.983 69.064C146.543 69.512 144.407 69.736 141.575 69.736C138.743 69.736 136.607 69.512 135.167 69.064C133.727 68.632 133.007 67.888 133.007 66.832C133.007 65.776 133.727 65.032 135.167 64.6C136.607 64.152 138.743 63.928 141.575 63.928ZM141.575 67.216C143.095 67.216 144.215 67.184 144.935 67.12C145.671 67.072 146.039 66.976 146.039 66.832C146.039 66.672 145.663 66.56 144.911 66.496C144.175 66.432 143.063 66.4 141.575 66.4C140.087 66.4 138.967 66.432 138.215 66.496C137.479 66.56 137.111 66.672 137.111 66.832C137.111 66.976 137.471 67.072 138.191 67.12C138.927 67.184 140.055 67.216 141.575 67.216ZM163.917 55.192C163.837 56.536 163.693 57.784 163.485 58.936L169.341 65.896L166.317 68.536L162.069 63.208C161.221 64.904 160.157 66.208 158.877 67.12C157.597 68.048 156.181 68.52 154.629 68.536V64.552C155.605 64.456 156.469 64.008 157.221 63.208C157.973 62.392 158.573 61.296 159.021 59.92C159.485 58.544 159.757 56.968 159.837 55.192H155.085V51.448H159.813V48.928H163.965V51.448H168.453V55.192H163.917ZM174.117 49V69.496H170.061V49H174.117ZM197.203 49V69.496H193.147V49H197.203ZM187.027 53.2C186.979 55.04 186.811 56.744 186.523 58.312L192.475 66.04L189.259 68.44L185.131 62.824C184.299 64.648 183.243 66.048 181.963 67.024C180.699 68.016 179.291 68.52 177.739 68.536V64.456C178.731 64.344 179.611 63.816 180.379 62.872C181.147 61.912 181.755 60.6 182.203 58.936C182.651 57.272 182.899 55.36 182.947 53.2H178.315V49.48H191.419V53.2H187.027ZM228.84 60.424H226.44V69.496H222.384V49H226.44V56.488H228.84V60.424ZM207.888 49.48H219.816V68.536H207.888V49.48ZM211.944 64.768H215.76V53.248H211.944V64.768ZM250.678 49V69.496H246.862V49H250.678ZM241.51 49.096H245.278V69.136H241.51V66.904L238.558 68.344L236.014 63.16C234.75 66.632 232.838 68.424 230.278 68.536V64.408C231.03 64.296 231.678 63.616 232.222 62.368C232.766 61.12 233.182 59.392 233.47 57.184C233.758 54.976 233.902 52.384 233.902 49.408L237.742 49.552C237.742 52.56 237.582 55.272 237.262 57.688L241.51 65.824V59.128H239.254V55.288H241.51V49.096ZM274.1 65.056V68.776H253.364V65.056H257.372V60.616C256.348 60.04 255.556 59.32 254.996 58.456C254.436 57.576 254.156 56.608 254.156 55.552C254.156 54.272 254.548 53.144 255.332 52.168C256.132 51.176 257.26 50.408 258.716 49.864C260.172 49.304 261.844 49.024 263.732 49.024C265.62 49.024 267.292 49.304 268.748 49.864C270.204 50.408 271.324 51.176 272.108 52.168C272.908 53.144 273.308 54.272 273.308 55.552C273.308 56.608 273.028 57.576 272.468 58.456C271.908 59.32 271.116 60.04 270.092 60.616V65.056H274.1ZM263.732 52.672C262.164 52.672 260.892 52.936 259.916 53.464C258.94 53.992 258.452 54.688 258.452 55.552C258.452 56.112 258.676 56.616 259.124 57.064C259.572 57.496 260.196 57.832 260.996 58.072C261.796 58.312 262.708 58.432 263.732 58.432C264.756 58.432 265.668 58.312 266.468 58.072C267.268 57.832 267.892 57.496 268.34 57.064C268.788 56.616 269.012 56.112 269.012 55.552C269.012 54.688 268.524 53.992 267.548 53.464C266.572 52.936 265.3 52.672 263.732 52.672ZM261.428 65.056H266.036V61.912C265.316 62.008 264.548 62.056 263.732 62.056C262.916 62.056 262.148 62.008 261.428 61.912V65.056ZM280.553 62.68H277.577L276.473 49.6H281.657L280.553 62.68ZM279.065 64.432C279.801 64.432 280.409 64.672 280.889 65.152C281.369 65.632 281.609 66.24 281.609 66.976C281.609 67.712 281.369 68.312 280.889 68.776C280.409 69.256 279.801 69.496 279.065 69.496C278.329 69.496 277.721 69.256 277.241 68.776C276.761 68.312 276.521 67.712 276.521 66.976C276.521 66.24 276.761 65.632 277.241 65.152C277.721 64.672 278.329 64.432 279.065 64.432Z" fill="#252525"/>
<g filter="url(#filter0_dddd_13_1798)">
<rect x="16" y="150" width="328" height="108" rx="16" fill="white"/>
<rect x="17" y="151" width="326" height="106" rx="15" stroke="#252525" stroke-width="2"/>
<g clip-path="url(#clip1_13_1798)">
<circle cx="184.68" cy="187.24" r="13.32" fill="#DDBAFF"/>
<path d="M175.5 185.125L178.875 188.5L184.5 180.625M193.5 184C193.5 185.902 192.555 187.585 191.11 188.602C191.266 189.491 191.205 190.405 190.933 191.265C190.66 192.126 190.185 192.908 189.546 193.546C188.908 194.185 188.126 194.661 187.265 194.933C186.405 195.205 185.491 195.266 184.602 195.11C184.083 195.849 183.394 196.452 182.593 196.868C181.792 197.284 180.903 197.501 180 197.5C178.098 197.5 176.415 196.555 175.398 195.11C174.509 195.266 173.595 195.205 172.735 194.933C171.874 194.66 171.092 194.185 170.454 193.546C169.815 192.908 169.339 192.126 169.067 191.265C168.795 190.405 168.734 189.491 168.889 188.602C168.151 188.083 167.548 187.394 167.132 186.593C166.716 185.792 166.499 184.903 166.5 184C166.5 182.098 167.445 180.415 168.889 179.398C168.734 178.509 168.795 177.595 169.067 176.735C169.339 175.874 169.815 175.092 170.454 174.454C171.092 173.815 171.874 173.34 172.735 173.067C173.595 172.795 174.509 172.734 175.398 172.89C175.917 172.151 176.606 171.548 177.407 171.132C178.208 170.716 179.097 170.499 180 170.5C181.902 170.5 183.585 171.445 184.602 172.89C185.491 172.734 186.405 172.795 187.265 173.067C188.126 173.34 188.908 173.815 189.546 174.454C190.185 175.092 190.66 175.874 190.933 176.735C191.205 177.595 191.266 178.509 191.11 179.398C191.849 179.917 192.452 180.606 192.868 181.407C193.284 182.208 193.501 183.097 193.5 184Z" stroke="#252525" stroke-width="1.28571" stroke-linecap="round" stroke-linejoin="round"/>
</g>
<path d="M106.914 226.172C106.914 227.703 108.055 229.203 110.273 229.812L109.477 231.156C107.852 230.719 106.695 229.766 106.07 228.547C105.445 229.891 104.266 230.93 102.586 231.406L101.758 230.062C103.992 229.438 105.18 227.859 105.18 226.172V226.141H102.227V224.766H105.18V223.203H106.93V224.766H109.867V226.141H106.914V226.172ZM112.977 223.266V226.672H114.945V228.109H112.977V231.578H111.242V223.266H112.977ZM112.977 232.172V237.219H103.852V232.172H112.977ZM105.57 233.547V235.812H111.258V233.547H105.57ZM119.523 224.297C120.805 224.297 121.859 225.008 122.492 226.25H125.789V223.266H127.508V237.406H125.789V232.062H122.617C122.008 233.469 120.891 234.281 119.523 234.281C117.398 234.281 115.898 232.359 115.898 229.281C115.898 226.234 117.398 224.297 119.523 224.297ZM119.523 225.859C118.352 225.859 117.555 227.125 117.57 229.281C117.555 231.453 118.352 232.719 119.523 232.719C120.695 232.719 121.477 231.453 121.492 229.281C121.477 227.125 120.695 225.859 119.523 225.859ZM122.977 227.672C123.078 228.164 123.133 228.703 123.133 229.281C123.133 229.773 123.094 230.227 123.023 230.656H125.789V227.672H122.977ZM144.352 223.266V228.781H146.445V230.234H144.352V237.359H142.617V223.266H144.352ZM140.617 224.734C140.617 228.891 138.898 232.531 134.195 234.844L133.211 233.5C136.648 231.789 138.508 229.383 138.867 226.172H133.977V224.734H140.617ZM158.539 226.938V228.344H148.789V223.516H150.523V226.938H158.539ZM160.008 229.703V231.109H147.117V229.703H160.008ZM153.539 232.125C156.586 232.141 158.414 233.078 158.43 234.734C158.414 236.391 156.586 237.328 153.539 237.328C150.461 237.328 148.617 236.391 148.617 234.734C148.617 233.078 150.461 232.141 153.539 232.125ZM153.539 233.484C151.477 233.5 150.367 233.891 150.383 234.734C150.367 235.547 151.477 236 153.539 236C155.555 236 156.68 235.547 156.695 234.734C156.68 233.891 155.555 233.5 153.539 233.484ZM176.57 223.281V233.641H174.836V230.141H171.477C170.797 230.898 169.797 231.359 168.664 231.359C166.539 231.359 164.93 229.828 164.93 227.75C164.93 225.641 166.539 224.125 168.664 224.125C169.789 224.125 170.781 224.578 171.461 225.328H174.836V223.281H176.57ZM176.93 235.703V237.109H167.305V232.578H169.039V235.703H176.93ZM168.664 225.672C167.445 225.672 166.586 226.484 166.586 227.75C166.586 229 167.445 229.812 168.664 229.812C169.82 229.812 170.695 229 170.711 227.75C170.695 226.484 169.82 225.672 168.664 225.672ZM172.227 226.734C172.312 227.055 172.367 227.391 172.367 227.75C172.367 228.094 172.32 228.422 172.242 228.734H174.836V226.734H172.227ZM189.867 224.125V225.391C189.867 226.711 189.867 228.156 189.492 230.156H191.445V231.562H185.836V237.406H184.086V231.562H178.57V230.156H187.727C188.117 228.234 188.133 226.797 188.133 225.531H180.086V224.125H189.867ZM208.383 223.266V237.391H206.711V230.156H205.211V236.703H203.57V223.516H205.211V228.719H206.711V223.266H208.383ZM202.18 224.797V233.75H196.633V224.797H202.18ZM198.258 226.172V232.375H200.555V226.172H198.258ZM218.398 224.844V226.219H215.383C215.391 227.789 216.625 229.328 218.883 229.922L218.07 231.266C216.43 230.836 215.227 229.867 214.57 228.625C213.93 230.008 212.727 231.094 211.039 231.594L210.195 230.25C212.438 229.594 213.641 227.914 213.648 226.219H210.633V224.844H213.648V223.281H215.398V224.844H218.398ZM221.789 223.281V231.844H220.039V223.281H221.789ZM217.008 232.094C219.977 232.094 221.82 233.062 221.82 234.734C221.82 236.406 219.977 237.375 217.008 237.375C214.008 237.375 212.18 236.406 212.18 234.734C212.18 233.062 214.008 232.094 217.008 232.094ZM217.008 233.438C215.008 233.438 213.93 233.906 213.93 234.734C213.93 235.578 215.008 236.031 217.008 236.031C218.992 236.031 220.102 235.578 220.117 234.734C220.102 233.906 218.992 233.438 217.008 233.438ZM243.242 223.266V237.391H241.492V223.266H243.242ZM239.023 224.766C239.023 228.969 237.398 232.547 232.445 234.891L231.539 233.5C235.234 231.742 236.953 229.352 237.258 226.141H232.258V224.766H239.023ZM256.695 226.938V228.344H246.945V223.516H248.68V226.938H256.695ZM258.164 229.703V231.109H245.273V229.703H258.164ZM251.695 232.125C254.742 232.141 256.57 233.078 256.586 234.734C256.57 236.391 254.742 237.328 251.695 237.328C248.617 237.328 246.773 236.391 246.773 234.734C246.773 233.078 248.617 232.141 251.695 232.125ZM251.695 233.484C249.633 233.5 248.523 233.891 248.539 234.734C248.523 235.547 249.633 236 251.695 236C253.711 236 254.836 235.547 254.852 234.734C254.836 233.891 253.711 233.5 251.695 233.484Z" fill="#252525"/>
</g>
<rect x="16" y="270" width="328" height="108" rx="16" fill="#F0F0F0"/>
<path d="M175.5 305.125L178.875 308.5L184.5 300.625M193.5 304C193.5 305.902 192.555 307.585 191.11 308.602C191.266 309.491 191.205 310.405 190.933 311.265C190.66 312.126 190.185 312.908 189.546 313.546C188.908 314.185 188.126 314.66 187.265 314.933C186.405 315.205 185.491 315.266 184.602 315.11C184.083 315.849 183.394 316.452 182.593 316.868C181.792 317.284 180.903 317.501 180 317.5C178.098 317.5 176.415 316.555 175.398 315.11C174.509 315.266 173.595 315.205 172.735 314.933C171.874 314.66 171.092 314.185 170.454 313.546C169.815 312.908 169.339 312.126 169.067 311.265C168.795 310.405 168.734 309.491 168.889 308.602C168.151 308.083 167.548 307.394 167.132 306.593C166.716 305.792 166.499 304.903 166.5 304C166.5 302.098 167.445 300.415 168.889 299.398C168.734 298.509 168.795 297.595 169.067 296.735C169.339 295.874 169.815 295.092 170.454 294.454C171.092 293.815 171.874 293.34 172.735 293.067C173.595 292.795 174.509 292.734 175.398 292.889C175.917 292.151 176.606 291.548 177.407 291.132C178.208 290.716 179.097 290.499 180 290.5C181.902 290.5 183.585 291.445 184.602 292.889C185.491 292.734 186.405 292.795 187.265 293.067C188.126 293.34 188.908 293.815 189.546 294.454C190.185 295.092 190.66 295.874 190.933 296.735C191.205 297.595 191.266 298.509 191.11 299.398C191.849 299.917 192.452 300.606 192.868 301.407C193.284 302.208 193.501 303.097 193.5 304Z" stroke="#D0D0D0" stroke-width="1.28571" stroke-linecap="round" stroke-linejoin="round"/>
<path d="M140.117 343.281V353.969H138.367V352.734H135.602V351.516H138.367V343.281H140.117ZM140.445 355.703V357.109H130.086V352.938H131.82V355.703H140.445ZM128.211 349.625C130.82 349.609 134.32 349.578 137.32 349.203L137.414 350.453C136.25 350.648 135.047 350.781 133.852 350.859V353.578H132.117V350.953C130.797 351.008 129.539 351.016 128.43 351.016L128.211 349.625ZM132.82 343.797C134.883 343.797 136.32 344.812 136.336 346.297C136.32 347.812 134.883 348.781 132.82 348.781C130.727 348.781 129.289 347.812 129.289 346.297C129.289 344.812 130.727 343.797 132.82 343.797ZM132.82 345.078C131.695 345.078 130.93 345.531 130.93 346.297C130.93 347.062 131.695 347.516 132.82 347.516C133.898 347.516 134.664 347.062 134.68 346.297C134.664 345.531 133.898 345.078 132.82 345.078ZM153.43 343.844V345.016C153.43 346.117 153.43 347.32 153.133 348.828H154.945V350.219H142.133V348.828H151.414C151.5 348.328 151.562 347.867 151.617 347.422L143.539 347.766L143.336 346.422L151.68 346.219C151.695 345.875 151.695 345.547 151.695 345.219H143.695V343.844H153.43ZM153.508 351.234V354.797H145.305V355.859H154.008V357.219H143.586V353.531H151.773V352.562H143.555V351.234H153.508ZM167.695 343.281V351.922H165.945V343.281H167.695ZM167.695 352.578V357.391H165.945V354H158.055V352.578H167.695ZM163.164 344.078V348.266H158.383V349.844C160.805 349.836 162.516 349.758 164.539 349.453L164.758 350.844C162.523 351.203 160.617 351.266 157.883 351.266H156.68V346.922H161.445V345.484H156.648V344.078H163.164ZM178.883 347.281C178.883 349.594 180.242 352.031 182.523 352.984L181.57 354.359C179.898 353.641 178.68 352.156 178.039 350.359C177.383 352.297 176.148 353.922 174.492 354.703L173.492 353.344C175.727 352.312 177.117 349.688 177.117 347.281V346.094H174.008V344.656H181.977V346.094H178.883V347.281ZM185.305 343.266V357.391H183.555V343.266H185.305ZM199.227 343.281V353.969H197.477V352.734H194.711V351.516H197.477V343.281H199.227ZM199.555 355.703V357.109H189.195V352.938H190.93V355.703H199.555ZM187.32 349.625C189.93 349.609 193.43 349.578 196.43 349.203L196.523 350.453C195.359 350.648 194.156 350.781 192.961 350.859V353.578H191.227V350.953C189.906 351.008 188.648 351.016 187.539 351.016L187.32 349.625ZM191.93 343.797C193.992 343.797 195.43 344.812 195.445 346.297C195.43 347.812 193.992 348.781 191.93 348.781C189.836 348.781 188.398 347.812 188.398 346.297C188.398 344.812 189.836 343.797 191.93 343.797ZM191.93 345.078C190.805 345.078 190.039 345.531 190.039 346.297C190.039 347.062 190.805 347.516 191.93 347.516C193.008 347.516 193.773 347.062 193.789 346.297C193.773 345.531 193.008 345.078 191.93 345.078ZM216.805 343.266V357.391H215.055V343.266H216.805ZM212.586 344.766C212.586 348.969 210.961 352.547 206.008 354.891L205.102 353.5C208.797 351.742 210.516 349.352 210.82 346.141H205.82V344.766H212.586ZM230.258 346.938V348.344H220.508V343.516H222.242V346.938H230.258ZM231.727 349.703V351.109H218.836V349.703H231.727ZM225.258 352.125C228.305 352.141 230.133 353.078 230.148 354.734C230.133 356.391 228.305 357.328 225.258 357.328C222.18 357.328 220.336 356.391 220.336 354.734C220.336 353.078 222.18 352.141 225.258 352.125ZM225.258 353.484C223.195 353.5 222.086 353.891 222.102 354.734C222.086 355.547 223.195 356 225.258 356C227.273 356 228.398 355.547 228.414 354.734C228.398 353.891 227.273 353.5 225.258 353.484Z" fill="#A7A7A7"/>
<g opacity="0.5">
<rect x="101" y="298" width="158" height="52" rx="6" stroke="#FFBBBB" stroke-width="4"/>
<path d="M116.552 330.76C115.229 330.76 114.035 330.461 112.968 329.864C111.912 329.277 111.08 328.467 110.472 327.432C109.875 326.387 109.576 325.213 109.576 323.912C109.576 322.611 109.875 321.443 110.472 320.408C111.08 319.363 111.912 318.547 112.968 317.96C114.035 317.363 115.229 317.064 116.552 317.064C117.715 317.064 118.755 317.277 119.672 317.704C120.6 318.131 121.352 318.717 121.928 319.464C122.504 320.211 122.883 321.048 123.064 321.976H120.12C119.96 321.336 119.56 320.803 118.92 320.376C118.291 319.949 117.523 319.736 116.616 319.736C115.837 319.736 115.133 319.917 114.504 320.28C113.875 320.632 113.379 321.128 113.016 321.768C112.664 322.397 112.488 323.112 112.488 323.912C112.488 324.701 112.664 325.416 113.016 326.056C113.379 326.696 113.875 327.197 114.504 327.56C115.133 327.912 115.837 328.088 116.616 328.088C117.213 328.088 117.773 327.971 118.296 327.736C118.829 327.501 119.267 327.197 119.608 326.824C119.96 326.451 120.173 326.067 120.248 325.672H123.192C123.053 326.557 122.685 327.389 122.088 328.168C121.491 328.947 120.707 329.571 119.736 330.04C118.776 330.52 117.715 330.76 116.552 330.76ZM131.335 330.76C130.001 330.76 128.796 330.461 127.719 329.864C126.652 329.277 125.815 328.467 125.207 327.432C124.599 326.387 124.295 325.213 124.295 323.912C124.295 322.611 124.599 321.443 125.207 320.408C125.815 319.363 126.652 318.547 127.719 317.96C128.796 317.363 130.001 317.064 131.335 317.064C132.668 317.064 133.868 317.363 134.935 317.96C136.012 318.547 136.855 319.363 137.463 320.408C138.071 321.443 138.375 322.611 138.375 323.912C138.375 325.213 138.071 326.387 137.463 327.432C136.855 328.467 136.012 329.277 134.935 329.864C133.868 330.461 132.668 330.76 131.335 330.76ZM131.335 328.136C132.113 328.136 132.817 327.955 133.447 327.592C134.076 327.229 134.567 326.728 134.919 326.088C135.281 325.437 135.463 324.712 135.463 323.912C135.463 323.101 135.281 322.376 134.919 321.736C134.567 321.096 134.076 320.595 133.447 320.232C132.817 319.869 132.113 319.688 131.335 319.688C130.556 319.688 129.852 319.869 129.223 320.232C128.593 320.595 128.097 321.096 127.735 321.736C127.383 322.376 127.207 323.101 127.207 323.912C127.207 324.712 127.383 325.437 127.735 326.088C128.097 326.728 128.593 327.229 129.223 327.592C129.852 327.955 130.556 328.136 131.335 328.136ZM140.105 317.4H142.425L146.921 324.696L151.417 317.4H153.737V330.44H150.825V323.288L147.801 328.296H146.041L143.017 323.288V330.44H140.105V317.4ZM158.955 317.4V330.44H156.043V317.4H158.955ZM161.261 317.4H163.693L170.205 325.24V317.24H173.117V330.28H170.685L164.173 322.44V330.44H161.261V317.4ZM181.818 317.064C182.927 317.064 183.935 317.256 184.842 317.64C185.759 318.024 186.522 318.547 187.13 319.208C187.748 319.869 188.186 320.611 188.442 321.432H185.242C184.954 320.931 184.511 320.525 183.914 320.216C183.327 319.896 182.65 319.736 181.882 319.736C181.103 319.736 180.399 319.917 179.77 320.28C179.14 320.632 178.644 321.128 178.282 321.768C177.93 322.397 177.754 323.112 177.754 323.912C177.754 324.712 177.93 325.437 178.282 326.088C178.644 326.728 179.14 327.229 179.77 327.592C180.399 327.955 181.103 328.136 181.882 328.136C182.532 328.136 183.124 328.019 183.658 327.784C184.191 327.549 184.623 327.24 184.954 326.856C185.295 326.461 185.519 326.045 185.626 325.608H181.642V323.144H188.73V323.912C188.73 325.213 188.426 326.387 187.818 327.432C187.22 328.467 186.394 329.277 185.338 329.864C184.292 330.461 183.119 330.76 181.818 330.76C180.495 330.76 179.3 330.461 178.234 329.864C177.178 329.277 176.346 328.467 175.738 327.432C175.14 326.387 174.842 325.213 174.842 323.912C174.842 322.611 175.14 321.443 175.738 320.408C176.346 319.363 177.178 318.547 178.234 317.96C179.3 317.363 180.495 317.064 181.818 317.064ZM200.021 317.08C200.981 317.08 201.85 317.261 202.629 317.624C203.408 317.987 204.026 318.493 204.485 319.144C204.954 319.784 205.21 320.515 205.253 321.336H202.245C202.16 320.76 201.909 320.312 201.493 319.992C201.077 319.672 200.522 319.512 199.829 319.512C199.168 319.512 198.65 319.635 198.277 319.88C197.904 320.115 197.717 320.435 197.717 320.84C197.717 321.16 197.834 321.421 198.069 321.624C198.304 321.827 198.661 322.008 199.141 322.168C199.632 322.317 200.341 322.488 201.269 322.68C202.709 322.979 203.738 323.475 204.357 324.168C204.986 324.851 205.301 325.709 205.301 326.744C205.301 327.555 205.066 328.264 204.597 328.872C204.138 329.48 203.509 329.944 202.709 330.264C201.909 330.595 201.018 330.76 200.037 330.76C198.97 330.76 198.01 330.573 197.157 330.2C196.314 329.837 195.642 329.315 195.141 328.632C194.65 327.949 194.384 327.149 194.341 326.232H197.333C197.418 326.861 197.717 327.368 198.229 327.752C198.752 328.125 199.424 328.312 200.245 328.312C200.842 328.312 201.333 328.179 201.717 327.912C202.112 327.645 202.309 327.299 202.309 326.872C202.309 326.531 202.202 326.248 201.989 326.024C201.786 325.8 201.456 325.608 200.997 325.448C200.549 325.288 199.92 325.133 199.109 324.984C197.648 324.707 196.554 324.243 195.829 323.592C195.104 322.941 194.741 322.024 194.741 320.84C194.741 320.072 194.97 319.405 195.429 318.84C195.898 318.275 196.533 317.843 197.333 317.544C198.133 317.235 199.029 317.08 200.021 317.08ZM213.475 330.76C212.142 330.76 210.937 330.461 209.859 329.864C208.793 329.277 207.955 328.467 207.347 327.432C206.739 326.387 206.435 325.213 206.435 323.912C206.435 322.611 206.739 321.443 207.347 320.408C207.955 319.363 208.793 318.547 209.859 317.96C210.937 317.363 212.142 317.064 213.475 317.064C214.809 317.064 216.009 317.363 217.075 317.96C218.153 318.547 218.995 319.363 219.603 320.408C220.211 321.443 220.515 322.611 220.515 323.912C220.515 325.213 220.211 326.387 219.603 327.432C218.995 328.467 218.153 329.277 217.075 329.864C216.009 330.461 214.809 330.76 213.475 330.76ZM213.475 328.136C214.254 328.136 214.958 327.955 215.587 327.592C216.217 327.229 216.707 326.728 217.059 326.088C217.422 325.437 217.603 324.712 217.603 323.912C217.603 323.101 217.422 322.376 217.059 321.736C216.707 321.096 216.217 320.595 215.587 320.232C214.958 319.869 214.254 319.688 213.475 319.688C212.697 319.688 211.993 319.869 211.363 320.232C210.734 320.595 210.238 321.096 209.875 321.736C209.523 322.376 209.347 323.101 209.347 323.912C209.347 324.712 209.523 325.437 209.875 326.088C210.238 326.728 210.734 327.229 211.363 327.592C211.993 327.955 212.697 328.136 213.475 328.136ZM228.71 330.76C227.376 330.76 226.171 330.461 225.094 329.864C224.027 329.277 223.19 328.467 222.582 327.432C221.974 326.387 221.67 325.213 221.67 323.912C221.67 322.611 221.974 321.443 222.582 320.408C223.19 319.363 224.027 318.547 225.094 317.96C226.171 317.363 227.376 317.064 228.71 317.064C230.043 317.064 231.243 317.363 232.31 317.96C233.387 318.547 234.23 319.363 234.838 320.408C235.446 321.443 235.75 322.611 235.75 323.912C235.75 325.213 235.446 326.387 234.838 327.432C234.23 328.467 233.387 329.277 232.31 329.864C231.243 330.461 230.043 330.76 228.71 330.76ZM228.71 328.136C229.488 328.136 230.192 327.955 230.822 327.592C231.451 327.229 231.942 326.728 232.294 326.088C232.656 325.437 232.838 324.712 232.838 323.912C232.838 323.101 232.656 322.376 232.294 321.736C231.942 321.096 231.451 320.595 230.822 320.232C230.192 319.869 229.488 319.688 228.71 319.688C227.931 319.688 227.227 319.869 226.598 320.232C225.968 320.595 225.472 321.096 225.11 321.736C224.758 322.376 224.582 323.101 224.582 323.912C224.582 324.712 224.758 325.437 225.11 326.088C225.472 326.728 225.968 327.229 226.598 327.592C227.227 327.955 227.931 328.136 228.71 328.136ZM237.48 317.4H239.912L246.424 325.24V317.24H249.336V330.28H246.904L240.392 322.44V330.44H237.48V317.4Z" fill="#FFBBBB"/>
</g>
<rect x="16" y="390" width="328" height="108" rx="16" fill="#F0F0F0"/>
<path d="M175.5 425.125L178.875 428.5L184.5 420.625M193.5 424C193.5 425.902 192.555 427.585 191.11 428.602C191.266 429.491 191.205 430.405 190.933 431.265C190.66 432.126 190.185 432.908 189.546 433.546C188.908 434.185 188.126 434.66 187.265 434.933C186.405 435.205 185.491 435.266 184.602 435.11C184.083 435.849 183.394 436.452 182.593 436.868C181.792 437.284 180.903 437.501 180 437.5C178.098 437.5 176.415 436.555 175.398 435.11C174.509 435.266 173.595 435.205 172.735 434.933C171.874 434.66 171.092 434.185 170.454 433.546C169.815 432.908 169.339 432.126 169.067 431.265C168.795 430.405 168.734 429.491 168.889 428.602C168.151 428.083 167.548 427.394 167.132 426.593C166.716 425.792 166.499 424.903 166.5 424C166.5 422.098 167.445 420.415 168.889 419.398C168.734 418.509 168.795 417.595 169.067 416.735C169.339 415.874 169.815 415.092 170.454 414.454C171.092 413.815 171.874 413.34 172.735 413.067C173.595 412.795 174.509 412.734 175.398 412.889C175.917 412.151 176.606 411.548 177.407 411.132C178.208 410.716 179.097 410.499 180 410.5C181.902 410.5 183.585 411.445 184.602 412.889C185.491 412.734 186.405 412.795 187.265 413.067C188.126 413.34 188.908 413.815 189.546 414.454C190.185 415.092 190.66 415.874 190.933 416.735C191.205 417.595 191.266 418.509 191.11 419.398C191.849 419.917 192.452 420.606 192.868 421.407C193.284 422.208 193.501 423.097 193.5 424Z" stroke="#D0D0D0" stroke-width="1.28571" stroke-linecap="round" stroke-linejoin="round"/>
<path d="M77.4922 463.266V477.391H75.8203V470.25H74.2578V476.672H72.6328V463.531H74.2578V468.828H75.8203V463.266H77.4922ZM67.7266 464.891V472.344C68.9453 472.32 70.2812 472.219 71.7578 471.922L71.9297 473.438C70.0234 473.781 68.4141 473.875 66.9141 473.875H65.9766V464.891H67.7266ZM86.8516 464.297C88.1328 464.297 89.1875 465.008 89.8203 466.25H93.1172V463.266H94.8359V477.406H93.1172V472.062H89.9453C89.3359 473.469 88.2188 474.281 86.8516 474.281C84.7266 474.281 83.2266 472.359 83.2266 469.281C83.2266 466.234 84.7266 464.297 86.8516 464.297ZM86.8516 465.859C85.6797 465.859 84.8828 467.125 84.8984 469.281C84.8828 471.453 85.6797 472.719 86.8516 472.719C88.0234 472.719 88.8047 471.453 88.8203 469.281C88.8047 467.125 88.0234 465.859 86.8516 465.859ZM90.3047 467.672C90.4062 468.164 90.4609 468.703 90.4609 469.281C90.4609 469.773 90.4219 470.227 90.3516 470.656H93.1172V467.672H90.3047ZM109.711 471.188V472.594H106.57V477.391H104.805V472.594H101.68V477.391H99.8984V472.594H96.8047V471.188H109.711ZM103.227 463.766C106.227 463.781 108.32 465 108.32 466.922C108.32 468.812 106.227 470.016 103.227 470.016C100.211 470.016 98.1484 468.812 98.1641 466.922C98.1484 465 100.211 463.781 103.227 463.766ZM103.227 465.172C101.227 465.172 99.9297 465.812 99.9453 466.922C99.9297 468 101.227 468.641 103.227 468.641C105.227 468.641 106.523 468 106.523 466.922C106.523 465.812 105.227 465.172 103.227 465.172ZM115.992 466.656C115.977 469.25 117.336 471.844 119.633 472.828L118.602 474.219C116.977 473.469 115.781 471.969 115.133 470.125C114.484 472.117 113.273 473.742 111.555 474.547L110.492 473.094C112.852 472.078 114.227 469.375 114.227 466.656V464.406H115.992V466.656ZM122.398 463.266V477.406H120.648V463.266H122.398ZM135.617 463.266V467.328H137.586V468.781H135.617V473.453H133.852V463.266H135.617ZM131.773 464.344C131.773 468.094 129.336 470.766 125.148 471.984L124.43 470.609C127.656 469.68 129.578 467.922 129.883 465.766H125.023V464.344H131.773ZM136.148 475.703V477.109H126.539V472.406H128.305V475.703H136.148ZM150.492 463.266V477.391H148.82V463.266H150.492ZM147.586 463.516V476.703H145.93V469.984H144.586C144.422 472.734 143.242 474.438 141.492 474.422C139.648 474.438 138.445 472.484 138.445 469.375C138.445 466.266 139.648 464.344 141.492 464.344C143.203 464.344 144.367 465.938 144.57 468.578H145.93V463.516H147.586ZM141.492 465.984C140.602 465.969 140.039 467.172 140.055 469.375C140.039 471.578 140.602 472.781 141.492 472.766C142.43 472.781 142.992 471.578 142.992 469.375C142.992 467.172 142.43 465.969 141.492 465.984ZM167.367 463.266V466.891H169.039V468.344H167.367V471.703H165.617V463.266H167.367ZM167.367 472.297V477.406H165.617V473.688H157.711V472.297H167.367ZM159.961 464.391V465.781H157.992V469.406C158.672 469.383 159.352 469.312 160.117 469.141L160.273 470.578C159.07 470.828 158.086 470.828 157.023 470.844H156.336V464.391H159.961ZM164.477 464.391V465.781H162.383V469.406C163.375 469.383 164.047 469.305 164.852 469.125L165.023 470.562C163.93 470.797 163.086 470.828 161.461 470.844H160.711V464.391H164.477ZM180.727 464.203V470.344H174.039V464.203H180.727ZM175.742 465.594V468.953H179.023V465.594H175.742ZM184.695 463.266V466.438H186.664V467.875H184.695V471.234H182.961V463.266H184.695ZM184.898 471.953V473.328H181.148C181.422 474.531 183.023 475.664 185.492 476.016L184.867 477.344C182.664 477.031 180.984 476.086 180.18 474.812C179.359 476.086 177.711 477.023 175.508 477.312L174.867 476C177.359 475.664 178.922 474.562 179.211 473.328H175.445V471.953H184.898ZM198.82 467.266V468.641H189.039V463.781H190.758V467.266H198.82ZM200.273 470.281V471.656H187.367V470.281H200.273ZM198.914 475.656V477.062H188.914V472.906H190.648V475.656H198.914ZM216.836 463.281V473.641H215.102V470.141H211.742C211.062 470.898 210.062 471.359 208.93 471.359C206.805 471.359 205.195 469.828 205.195 467.75C205.195 465.641 206.805 464.125 208.93 464.125C210.055 464.125 211.047 464.578 211.727 465.328H215.102V463.281H216.836ZM217.195 475.703V477.109H207.57V472.578H209.305V475.703H217.195ZM208.93 465.672C207.711 465.672 206.852 466.484 206.852 467.75C206.852 469 207.711 469.812 208.93 469.812C210.086 469.812 210.961 469 210.977 467.75C210.961 466.484 210.086 465.672 208.93 465.672ZM212.492 466.734C212.578 467.055 212.633 467.391 212.633 467.75C212.633 468.094 212.586 468.422 212.508 468.734H215.102V466.734H212.492ZM230.133 464.125V465.391C230.133 466.711 230.133 468.156 229.758 470.156H231.711V471.562H226.102V477.406H224.352V471.562H218.836V470.156H227.992C228.383 468.234 228.398 466.797 228.398 465.531H220.352V464.125H230.133ZM249.336 471.75V473.172H243.742V477.406H242.023V473.172H236.461V471.75H249.336ZM248.133 464.938V466.312H243.773C243.938 467.711 245.773 469.172 248.602 469.516L247.961 470.891C245.625 470.594 243.812 469.562 242.898 468.203C241.969 469.578 240.141 470.594 237.789 470.891L237.164 469.516C239.984 469.172 241.836 467.734 242.008 466.312H237.648V464.938H242.023V463.281H243.742V464.938H248.133ZM255.367 466.609C255.367 468.297 256.539 469.922 258.773 470.609L257.93 471.969C256.328 471.484 255.172 470.461 254.523 469.156C253.898 470.562 252.734 471.672 251.086 472.203L250.242 470.844C252.461 470.141 253.633 468.422 253.633 466.609V466.391H250.68V465.016H253.633V463.359H255.383V465.016H258.32V466.391H255.367V466.609ZM262.117 463.281V473.766H260.383V468.875H257.852V467.484H260.383V463.281H262.117ZM262.477 475.703V477.109H252.852V472.859H254.586V475.703H262.477ZM279.711 463.266V477.391H277.961V463.266H279.711ZM275.492 464.766C275.492 468.969 273.867 472.547 268.914 474.891L268.008 473.5C271.703 471.742 273.422 469.352 273.727 466.141H268.727V464.766H275.492ZM293.164 466.938V468.344H283.414V463.516H285.148V466.938H293.164ZM294.633 469.703V471.109H281.742V469.703H294.633ZM288.164 472.125C291.211 472.141 293.039 473.078 293.055 474.734C293.039 476.391 291.211 477.328 288.164 477.328C285.086 477.328 283.242 476.391 283.242 474.734C283.242 473.078 285.086 472.141 288.164 472.125ZM288.164 473.484C286.102 473.5 284.992 473.891 285.008 474.734C284.992 475.547 286.102 476 288.164 476C290.18 476 291.305 475.547 291.32 474.734C291.305 473.891 290.18 473.5 288.164 473.484Z" fill="#A7A7A7"/>
<g opacity="0.5">
<rect x="101" y="418" width="158" height="52" rx="6" stroke="#FFBBBB" stroke-width="4"/>
<path d="M116.552 450.76C115.229 450.76 114.035 450.461 112.968 449.864C111.912 449.277 111.08 448.467 110.472 447.432C109.875 446.387 109.576 445.213 109.576 443.912C109.576 442.611 109.875 441.443 110.472 440.408C111.08 439.363 111.912 438.547 112.968 437.96C114.035 437.363 115.229 437.064 116.552 437.064C117.715 437.064 118.755 437.277 119.672 437.704C120.6 438.131 121.352 438.717 121.928 439.464C122.504 440.211 122.883 441.048 123.064 441.976H120.12C119.96 441.336 119.56 440.803 118.92 440.376C118.291 439.949 117.523 439.736 116.616 439.736C115.837 439.736 115.133 439.917 114.504 440.28C113.875 440.632 113.379 441.128 113.016 441.768C112.664 442.397 112.488 443.112 112.488 443.912C112.488 444.701 112.664 445.416 113.016 446.056C113.379 446.696 113.875 447.197 114.504 447.56C115.133 447.912 115.837 448.088 116.616 448.088C117.213 448.088 117.773 447.971 118.296 447.736C118.829 447.501 119.267 447.197 119.608 446.824C119.96 446.451 120.173 446.067 120.248 445.672H123.192C123.053 446.557 122.685 447.389 122.088 448.168C121.491 448.947 120.707 449.571 119.736 450.04C118.776 450.52 117.715 450.76 116.552 450.76ZM131.335 450.76C130.001 450.76 128.796 450.461 127.719 449.864C126.652 449.277 125.815 448.467 125.207 447.432C124.599 446.387 124.295 445.213 124.295 443.912C124.295 442.611 124.599 441.443 125.207 440.408C125.815 439.363 126.652 438.547 127.719 437.96C128.796 437.363 130.001 437.064 131.335 437.064C132.668 437.064 133.868 437.363 134.935 437.96C136.012 438.547 136.855 439.363 137.463 440.408C138.071 441.443 138.375 442.611 138.375 443.912C138.375 445.213 138.071 446.387 137.463 447.432C136.855 448.467 136.012 449.277 134.935 449.864C133.868 450.461 132.668 450.76 131.335 450.76ZM131.335 448.136C132.113 448.136 132.817 447.955 133.447 447.592C134.076 447.229 134.567 446.728 134.919 446.088C135.281 445.437 135.463 444.712 135.463 443.912C135.463 443.101 135.281 442.376 134.919 441.736C134.567 441.096 134.076 440.595 133.447 440.232C132.817 439.869 132.113 439.688 131.335 439.688C130.556 439.688 129.852 439.869 129.223 440.232C128.593 440.595 128.097 441.096 127.735 441.736C127.383 442.376 127.207 443.101 127.207 443.912C127.207 444.712 127.383 445.437 127.735 446.088C128.097 446.728 128.593 447.229 129.223 447.592C129.852 447.955 130.556 448.136 131.335 448.136ZM140.105 437.4H142.425L146.921 444.696L151.417 437.4H153.737V450.44H150.825V443.288L147.801 448.296H146.041L143.017 443.288V450.44H140.105V437.4ZM158.955 437.4V450.44H156.043V437.4H158.955ZM161.261 437.4H163.693L170.205 445.24V437.24H173.117V450.28H170.685L164.173 442.44V450.44H161.261V437.4ZM181.818 437.064C182.927 437.064 183.935 437.256 184.842 437.64C185.759 438.024 186.522 438.547 187.13 439.208C187.748 439.869 188.186 440.611 188.442 441.432H185.242C184.954 440.931 184.511 440.525 183.914 440.216C183.327 439.896 182.65 439.736 181.882 439.736C181.103 439.736 180.399 439.917 179.77 440.28C179.14 440.632 178.644 441.128 178.282 441.768C177.93 442.397 177.754 443.112 177.754 443.912C177.754 444.712 177.93 445.437 178.282 446.088C178.644 446.728 179.14 447.229 179.77 447.592C180.399 447.955 181.103 448.136 181.882 448.136C182.532 448.136 183.124 448.019 183.658 447.784C184.191 447.549 184.623 447.24 184.954 446.856C185.295 446.461 185.519 446.045 185.626 445.608H181.642V443.144H188.73V443.912C188.73 445.213 188.426 446.387 187.818 447.432C187.22 448.467 186.394 449.277 185.338 449.864C184.292 450.461 183.119 450.76 181.818 450.76C180.495 450.76 179.3 450.461 178.234 449.864C177.178 449.277 176.346 448.467 175.738 447.432C175.14 446.387 174.842 445.213 174.842 443.912C174.842 442.611 175.14 441.443 175.738 440.408C176.346 439.363 177.178 438.547 178.234 437.96C179.3 437.363 180.495 437.064 181.818 437.064ZM200.021 437.08C200.981 437.08 201.85 437.261 202.629 437.624C203.408 437.987 204.026 438.493 204.485 439.144C204.954 439.784 205.21 440.515 205.253 441.336H202.245C202.16 440.76 201.909 440.312 201.493 439.992C201.077 439.672 200.522 439.512 199.829 439.512C199.168 439.512 198.65 439.635 198.277 439.88C197.904 440.115 197.717 440.435 197.717 440.84C197.717 441.16 197.834 441.421 198.069 441.624C198.304 441.827 198.661 442.008 199.141 442.168C199.632 442.317 200.341 442.488 201.269 442.68C202.709 442.979 203.738 443.475 204.357 444.168C204.986 444.851 205.301 445.709 205.301 446.744C205.301 447.555 205.066 448.264 204.597 448.872C204.138 449.48 203.509 449.944 202.709 450.264C201.909 450.595 201.018 450.76 200.037 450.76C198.97 450.76 198.01 450.573 197.157 450.2C196.314 449.837 195.642 449.315 195.141 448.632C194.65 447.949 194.384 447.149 194.341 446.232H197.333C197.418 446.861 197.717 447.368 198.229 447.752C198.752 448.125 199.424 448.312 200.245 448.312C200.842 448.312 201.333 448.179 201.717 447.912C202.112 447.645 202.309 447.299 202.309 446.872C202.309 446.531 202.202 446.248 201.989 446.024C201.786 445.8 201.456 445.608 200.997 445.448C200.549 445.288 199.92 445.133 199.109 444.984C197.648 444.707 196.554 444.243 195.829 443.592C195.104 442.941 194.741 442.024 194.741 440.84C194.741 440.072 194.97 439.405 195.429 438.84C195.898 438.275 196.533 437.843 197.333 437.544C198.133 437.235 199.029 437.08 200.021 437.08ZM213.475 450.76C212.142 450.76 210.937 450.461 209.859 449.864C208.793 449.277 207.955 448.467 207.347 447.432C206.739 446.387 206.435 445.213 206.435 443.912C206.435 442.611 206.739 441.443 207.347 440.408C207.955 439.363 208.793 438.547 209.859 437.96C210.937 437.363 212.142 437.064 213.475 437.064C214.809 437.064 216.009 437.363 217.075 437.96C218.153 438.547 218.995 439.363 219.603 440.408C220.211 441.443 220.515 442.611 220.515 443.912C220.515 445.213 220.211 446.387 219.603 447.432C218.995 448.467 218.153 449.277 217.075 449.864C216.009 450.461 214.809 450.76 213.475 450.76ZM213.475 448.136C214.254 448.136 214.958 447.955 215.587 447.592C216.217 447.229 216.707 446.728 217.059 446.088C217.422 445.437 217.603 444.712 217.603 443.912C217.603 443.101 217.422 442.376 217.059 441.736C216.707 441.096 216.217 440.595 215.587 440.232C214.958 439.869 214.254 439.688 213.475 439.688C212.697 439.688 211.993 439.869 211.363 440.232C210.734 440.595 210.238 441.096 209.875 441.736C209.523 442.376 209.347 443.101 209.347 443.912C209.347 444.712 209.523 445.437 209.875 446.088C210.238 446.728 210.734 447.229 211.363 447.592C211.993 447.955 212.697 448.136 213.475 448.136ZM228.71 450.76C227.376 450.76 226.171 450.461 225.094 449.864C224.027 449.277 223.19 448.467 222.582 447.432C221.974 446.387 221.67 445.213 221.67 443.912C221.67 442.611 221.974 441.443 222.582 440.408C223.19 439.363 224.027 438.547 225.094 437.96C226.171 437.363 227.376 437.064 228.71 437.064C230.043 437.064 231.243 437.363 232.31 437.96C233.387 438.547 234.23 439.363 234.838 440.408C235.446 441.443 235.75 442.611 235.75 443.912C235.75 445.213 235.446 446.387 234.838 447.432C234.23 448.467 233.387 449.277 232.31 449.864C231.243 450.461 230.043 450.76 228.71 450.76ZM228.71 448.136C229.488 448.136 230.192 447.955 230.822 447.592C231.451 447.229 231.942 446.728 232.294 446.088C232.656 445.437 232.838 444.712 232.838 443.912C232.838 443.101 232.656 442.376 232.294 441.736C231.942 441.096 231.451 440.595 230.822 440.232C230.192 439.869 229.488 439.688 228.71 439.688C227.931 439.688 227.227 439.869 226.598 440.232C225.968 440.595 225.472 441.096 225.11 441.736C224.758 442.376 224.582 443.101 224.582 443.912C224.582 444.712 224.758 445.437 225.11 446.088C225.472 446.728 225.968 447.229 226.598 447.592C227.227 447.955 227.931 448.136 228.71 448.136ZM237.48 437.4H239.912L246.424 445.24V437.24H249.336V450.28H246.904L240.392 442.44V450.44H237.48V437.4Z" fill="#FFBBBB"/>
</g>
<rect x="16" y="510" width="328" height="108" rx="16" fill="#F0F0F0"/>
<path d="M175.5 545.125L178.875 548.5L184.5 540.625M193.5 544C193.5 545.902 192.555 547.585 191.11 548.602C191.266 549.491 191.205 550.405 190.933 551.265C190.66 552.126 190.185 552.908 189.546 553.546C188.908 554.185 188.126 554.66 187.265 554.933C186.405 555.205 185.491 555.266 184.602 555.11C184.083 555.849 183.394 556.452 182.593 556.868C181.792 557.284 180.903 557.501 180 557.5C178.098 557.5 176.415 556.555 175.398 555.11C174.509 555.266 173.595 555.205 172.735 554.933C171.874 554.66 171.092 554.185 170.454 553.546C169.815 552.908 169.339 552.126 169.067 551.265C168.795 550.405 168.734 549.491 168.889 548.602C168.151 548.083 167.548 547.394 167.132 546.593C166.716 545.792 166.499 544.903 166.5 544C166.5 542.098 167.445 540.415 168.889 539.398C168.734 538.509 168.795 537.595 169.067 536.735C169.339 535.874 169.815 535.092 170.454 534.454C171.092 533.815 171.874 533.34 172.735 533.067C173.595 532.795 174.509 532.734 175.398 532.889C175.917 532.151 176.606 531.548 177.407 531.132C178.208 530.716 179.097 530.499 180 530.5C181.902 530.5 183.585 531.445 184.602 532.889C185.491 532.734 186.405 532.795 187.265 533.067C188.126 533.34 188.908 533.815 189.546 534.454C190.185 535.092 190.66 535.874 190.933 536.735C191.205 537.595 191.266 538.509 191.11 539.398C191.849 539.917 192.452 540.606 192.868 541.407C193.284 542.208 193.501 543.097 193.5 544Z" stroke="#D0D0D0" stroke-width="1.28571" stroke-linecap="round" stroke-linejoin="round"/>
<path d="M146.984 583.266V597.391H145.234V583.266H146.984ZM142.766 584.766C142.766 588.969 141.141 592.547 136.188 594.891L135.281 593.5C138.977 591.742 140.695 589.352 141 586.141H136V584.766H142.766ZM156.266 584.484V585.906H151.359V588.422H156.016V589.797H151.359V592.703C153.531 592.688 155.227 592.609 157.203 592.281L157.359 593.688C155.188 594.031 153.297 594.109 150.766 594.109H149.594V584.484H156.266ZM160.078 583.266V588.734H162.25V590.188H160.078V597.391H158.344V583.266H160.078ZM178.469 583.266V593.703H176.734V590.016H174.734V588.578H176.734V587.234H174.734V585.828H176.734V583.266H178.469ZM174.531 584.328V585.719H173.281V590.219C173.812 590.188 174.328 590.148 174.828 590.094L174.906 591.359C172.234 591.797 169.094 591.844 166.844 591.844L166.656 590.406L168.25 590.391V585.719H167.016V584.328H174.531ZM178.828 595.703V597.109H169.188V592.891H170.938V595.703H178.828ZM169.938 590.375L171.609 590.312V585.719H169.938V590.375ZM185.047 584.25C187.281 584.234 188.922 585.656 188.938 587.656C188.922 589.672 187.281 591.078 185.047 591.078C182.828 591.078 181.172 589.672 181.172 587.656C181.172 585.656 182.828 584.234 185.047 584.25ZM185.047 585.75C183.812 585.75 182.891 586.484 182.891 587.656C182.891 588.844 183.812 589.562 185.047 589.562C186.297 589.562 187.234 588.844 187.234 587.656C187.234 586.484 186.297 585.75 185.047 585.75ZM192.234 583.266V597.406H190.5V583.266H192.234ZM180.531 593.031C183.078 593.031 186.609 593 189.656 592.562L189.797 593.828C186.625 594.438 183.234 594.453 180.75 594.453L180.531 593.031ZM209.891 583.266V597.391H208.141V583.266H209.891ZM205.672 584.766C205.672 588.969 204.047 592.547 199.094 594.891L198.188 593.5C201.883 591.742 203.602 589.352 203.906 586.141H198.906V584.766H205.672ZM223.344 586.938V588.344H213.594V583.516H215.328V586.938H223.344ZM224.812 589.703V591.109H211.922V589.703H224.812ZM218.344 592.125C221.391 592.141 223.219 593.078 223.234 594.734C223.219 596.391 221.391 597.328 218.344 597.328C215.266 597.328 213.422 596.391 213.422 594.734C213.422 593.078 215.266 592.141 218.344 592.125ZM218.344 593.484C216.281 593.5 215.172 593.891 215.188 594.734C215.172 595.547 216.281 596 218.344 596C220.359 596 221.484 595.547 221.5 594.734C221.484 593.891 220.359 593.5 218.344 593.484Z" fill="#A7A7A7"/>
<g opacity="0.5">
<rect x="101" y="538" width="158" height="52" rx="6" stroke="#FFBBBB" stroke-width="4"/>
<path d="M116.552 570.76C115.229 570.76 114.035 570.461 112.968 569.864C111.912 569.277 111.08 568.467 110.472 567.432C109.875 566.387 109.576 565.213 109.576 563.912C109.576 562.611 109.875 561.443 110.472 560.408C111.08 559.363 111.912 558.547 112.968 557.96C114.035 557.363 115.229 557.064 116.552 557.064C117.715 557.064 118.755 557.277 119.672 557.704C120.6 558.131 121.352 558.717 121.928 559.464C122.504 560.211 122.883 561.048 123.064 561.976H120.12C119.96 561.336 119.56 560.803 118.92 560.376C118.291 559.949 117.523 559.736 116.616 559.736C115.837 559.736 115.133 559.917 114.504 560.28C113.875 560.632 113.379 561.128 113.016 561.768C112.664 562.397 112.488 563.112 112.488 563.912C112.488 564.701 112.664 565.416 113.016 566.056C113.379 566.696 113.875 567.197 114.504 567.56C115.133 567.912 115.837 568.088 116.616 568.088C117.213 568.088 117.773 567.971 118.296 567.736C118.829 567.501 119.267 567.197 119.608 566.824C119.96 566.451 120.173 566.067 120.248 565.672H123.192C123.053 566.557 122.685 567.389 122.088 568.168C121.491 568.947 120.707 569.571 119.736 570.04C118.776 570.52 117.715 570.76 116.552 570.76ZM131.335 570.76C130.001 570.76 128.796 570.461 127.719 569.864C126.652 569.277 125.815 568.467 125.207 567.432C124.599 566.387 124.295 565.213 124.295 563.912C124.295 562.611 124.599 561.443 125.207 560.408C125.815 559.363 126.652 558.547 127.719 557.96C128.796 557.363 130.001 557.064 131.335 557.064C132.668 557.064 133.868 557.363 134.935 557.96C136.012 558.547 136.855 559.363 137.463 560.408C138.071 561.443 138.375 562.611 138.375 563.912C138.375 565.213 138.071 566.387 137.463 567.432C136.855 568.467 136.012 569.277 134.935 569.864C133.868 570.461 132.668 570.76 131.335 570.76ZM131.335 568.136C132.113 568.136 132.817 567.955 133.447 567.592C134.076 567.229 134.567 566.728 134.919 566.088C135.281 565.437 135.463 564.712 135.463 563.912C135.463 563.101 135.281 562.376 134.919 561.736C134.567 561.096 134.076 560.595 133.447 560.232C132.817 559.869 132.113 559.688 131.335 559.688C130.556 559.688 129.852 559.869 129.223 560.232C128.593 560.595 128.097 561.096 127.735 561.736C127.383 562.376 127.207 563.101 127.207 563.912C127.207 564.712 127.383 565.437 127.735 566.088C128.097 566.728 128.593 567.229 129.223 567.592C129.852 567.955 130.556 568.136 131.335 568.136ZM140.105 557.4H142.425L146.921 564.696L151.417 557.4H153.737V570.44H150.825V563.288L147.801 568.296H146.041L143.017 563.288V570.44H140.105V557.4ZM158.955 557.4V570.44H156.043V557.4H158.955ZM161.261 557.4H163.693L170.205 565.24V557.24H173.117V570.28H170.685L164.173 562.44V570.44H161.261V557.4ZM181.818 557.064C182.927 557.064 183.935 557.256 184.842 557.64C185.759 558.024 186.522 558.547 187.13 559.208C187.748 559.869 188.186 560.611 188.442 561.432H185.242C184.954 560.931 184.511 560.525 183.914 560.216C183.327 559.896 182.65 559.736 181.882 559.736C181.103 559.736 180.399 559.917 179.77 560.28C179.14 560.632 178.644 561.128 178.282 561.768C177.93 562.397 177.754 563.112 177.754 563.912C177.754 564.712 177.93 565.437 178.282 566.088C178.644 566.728 179.14 567.229 179.77 567.592C180.399 567.955 181.103 568.136 181.882 568.136C182.532 568.136 183.124 568.019 183.658 567.784C184.191 567.549 184.623 567.24 184.954 566.856C185.295 566.461 185.519 566.045 185.626 565.608H181.642V563.144H188.73V563.912C188.73 565.213 188.426 566.387 187.818 567.432C187.22 568.467 186.394 569.277 185.338 569.864C184.292 570.461 183.119 570.76 181.818 570.76C180.495 570.76 179.3 570.461 178.234 569.864C177.178 569.277 176.346 568.467 175.738 567.432C175.14 566.387 174.842 565.213 174.842 563.912C174.842 562.611 175.14 561.443 175.738 560.408C176.346 559.363 177.178 558.547 178.234 557.96C179.3 557.363 180.495 557.064 181.818 557.064ZM200.021 557.08C200.981 557.08 201.85 557.261 202.629 557.624C203.408 557.987 204.026 558.493 204.485 559.144C204.954 559.784 205.21 560.515 205.253 561.336H202.245C202.16 560.76 201.909 560.312 201.493 559.992C201.077 559.672 200.522 559.512 199.829 559.512C199.168 559.512 198.65 559.635 198.277 559.88C197.904 560.115 197.717 560.435 197.717 560.84C197.717 561.16 197.834 561.421 198.069 561.624C198.304 561.827 198.661 562.008 199.141 562.168C199.632 562.317 200.341 562.488 201.269 562.68C202.709 562.979 203.738 563.475 204.357 564.168C204.986 564.851 205.301 565.709 205.301 566.744C205.301 567.555 205.066 568.264 204.597 568.872C204.138 569.48 203.509 569.944 202.709 570.264C201.909 570.595 201.018 570.76 200.037 570.76C198.97 570.76 198.01 570.573 197.157 570.2C196.314 569.837 195.642 569.315 195.141 568.632C194.65 567.949 194.384 567.149 194.341 566.232H197.333C197.418 566.861 197.717 567.368 198.229 567.752C198.752 568.125 199.424 568.312 200.245 568.312C200.842 568.312 201.333 568.179 201.717 567.912C202.112 567.645 202.309 567.299 202.309 566.872C202.309 566.531 202.202 566.248 201.989 566.024C201.786 565.8 201.456 565.608 200.997 565.448C200.549 565.288 199.92 565.133 199.109 564.984C197.648 564.707 196.554 564.243 195.829 563.592C195.104 562.941 194.741 562.024 194.741 560.84C194.741 560.072 194.97 559.405 195.429 558.84C195.898 558.275 196.533 557.843 197.333 557.544C198.133 557.235 199.029 557.08 200.021 557.08ZM213.475 570.76C212.142 570.76 210.937 570.461 209.859 569.864C208.793 569.277 207.955 568.467 207.347 567.432C206.739 566.387 206.435 565.213 206.435 563.912C206.435 562.611 206.739 561.443 207.347 560.408C207.955 559.363 208.793 558.547 209.859 557.96C210.937 557.363 212.142 557.064 213.475 557.064C214.809 557.064 216.009 557.363 217.075 557.96C218.153 558.547 218.995 559.363 219.603 560.408C220.211 561.443 220.515 562.611 220.515 563.912C220.515 565.213 220.211 566.387 219.603 567.432C218.995 568.467 218.153 569.277 217.075 569.864C216.009 570.461 214.809 570.76 213.475 570.76ZM213.475 568.136C214.254 568.136 214.958 567.955 215.587 567.592C216.217 567.229 216.707 566.728 217.059 566.088C217.422 565.437 217.603 564.712 217.603 563.912C217.603 563.101 217.422 562.376 217.059 561.736C216.707 561.096 216.217 560.595 215.587 560.232C214.958 559.869 214.254 559.688 213.475 559.688C212.697 559.688 211.993 559.869 211.363 560.232C210.734 560.595 210.238 561.096 209.875 561.736C209.523 562.376 209.347 563.101 209.347 563.912C209.347 564.712 209.523 565.437 209.875 566.088C210.238 566.728 210.734 567.229 211.363 567.592C211.993 567.955 212.697 568.136 213.475 568.136ZM228.71 570.76C227.376 570.76 226.171 570.461 225.094 569.864C224.027 569.277 223.19 568.467 222.582 567.432C221.974 566.387 221.67 565.213 221.67 563.912C221.67 562.611 221.974 561.443 222.582 560.408C223.19 559.363 224.027 558.547 225.094 557.96C226.171 557.363 227.376 557.064 228.71 557.064C230.043 557.064 231.243 557.363 232.31 557.96C233.387 558.547 234.23 559.363 234.838 560.408C235.446 561.443 235.75 562.611 235.75 563.912C235.75 565.213 235.446 566.387 234.838 567.432C234.23 568.467 233.387 569.277 232.31 569.864C231.243 570.461 230.043 570.76 228.71 570.76ZM228.71 568.136C229.488 568.136 230.192 567.955 230.822 567.592C231.451 567.229 231.942 566.728 232.294 566.088C232.656 565.437 232.838 564.712 232.838 563.912C232.838 563.101 232.656 562.376 232.294 561.736C231.942 561.096 231.451 560.595 230.822 560.232C230.192 559.869 229.488 559.688 228.71 559.688C227.931 559.688 227.227 559.869 226.598 560.232C225.968 560.595 225.472 561.096 225.11 561.736C224.758 562.376 224.582 563.101 224.582 563.912C224.582 564.712 224.758 565.437 225.11 566.088C225.472 566.728 225.968 567.229 226.598 567.592C227.227 567.955 227.931 568.136 228.71 568.136ZM237.48 557.4H239.912L246.424 565.24V557.24H249.336V570.28H246.904L240.392 562.44V570.44H237.48V557.4Z" fill="#FFBBBB"/>
</g>
<path d="M51.5742 659.285H50.6836L50.7539 657.539L49.2773 658.477L48.832 657.703L50.3906 656.906L48.832 656.098L49.2773 655.324L50.7539 656.262L50.6836 654.516H51.5742L51.4922 656.262L52.9688 655.324L53.4258 656.098L51.8672 656.906L53.4258 657.703L52.9688 658.477L51.4922 657.539L51.5742 659.285ZM58.3477 656.59C58.3477 658.348 59.4961 660.164 61.1133 660.855L60.5039 661.723C59.2676 661.178 58.2832 660.023 57.7969 658.617C57.3105 660.117 56.3203 661.395 55.1016 661.992L54.457 661.113C56.0391 660.375 57.2109 658.395 57.2227 656.59V655.477H54.8203V654.551H60.7383V655.477H58.3477V656.59ZM63.1758 653.496V663.996H62.0625V653.496H63.1758ZM73.2422 654.023V654.82C73.2422 655.646 73.2422 656.584 72.9727 657.855H74.4609V658.77H64.8516V657.855H71.8477C72.1289 656.631 72.1406 655.734 72.1406 654.938H66.0586V654.023H73.2422ZM73.2539 660.105V663.867H66.0234V660.105H73.2539ZM67.1133 660.984V662.965H72.1523V660.984H67.1133ZM84.7969 658.98V659.871H75.2227V658.98H84.7969ZM83.7188 662.871V663.773H76.4297V660.727H77.5547V662.871H83.7188ZM80.0039 653.848C82.2773 653.836 83.7539 654.633 83.7539 655.945C83.7539 657.27 82.2773 658.066 80.0039 658.078C77.7188 658.066 76.2539 657.27 76.2539 655.945C76.2539 654.633 77.7188 653.836 80.0039 653.848ZM80.0039 654.738C78.3984 654.738 77.3906 655.195 77.4023 655.945C77.3906 656.719 78.3984 657.164 80.0039 657.164C81.6094 657.164 82.6055 656.719 82.6055 655.945C82.6055 655.195 81.6094 654.738 80.0039 654.738ZM89.9297 654.504V657.023H91.9453V654.504H92.9648V657.434H94.3594V653.707H95.4258V663.492H94.3594V658.359H92.9648V661.406H88.875V654.504H89.9297ZM89.9297 660.48H91.9453V657.926H89.9297V660.48ZM97.5586 653.496V663.996H96.4922V653.496H97.5586ZM104.285 654.422V655.336H100.465V657.363H104.074V658.254H100.465V660.609C102.217 660.604 103.512 660.527 105.035 660.281L105.141 661.184C103.523 661.453 102.117 661.512 100.184 661.512H99.3398V654.422H104.285ZM107.074 653.496V657.633H108.762V658.57H107.074V663.996H105.961V653.496H107.074ZM116.496 654.738V655.629H113.637V657.562H116.027V658.43H113.637V660.633C115.008 660.621 115.904 660.557 116.988 660.363L117.082 661.266C115.875 661.512 114.879 661.535 113.25 661.535H112.57V654.738H116.496ZM121.219 653.496V663.996H120.141V653.496H121.219ZM119.051 653.719V663.469H117.996V658.336H116.578V657.434H117.996V653.719H119.051ZM127.898 654.984C127.898 656.695 129.727 658.312 131.742 658.676L131.227 659.602C129.551 659.238 128.004 658.137 127.324 656.66C126.633 658.125 125.092 659.227 123.41 659.602L122.918 658.676C124.91 658.301 126.727 656.695 126.727 654.984V654.188H127.898V654.984ZM132.176 661.688V662.613H122.566V661.688H132.176ZM141.457 659.086V659.977H134.145V654.363H141.352V655.266H135.27V656.684H141.129V657.562H135.27V659.086H141.457ZM142.547 661.758V662.672H132.938V661.758H142.547ZM155.836 658.758V659.66H151.676V661.699H150.551V659.66H146.227V658.758H155.836ZM154.77 662.859V663.773H147.434V660.691H148.547V662.859H154.77ZM151.02 653.742C153.281 653.742 154.746 654.562 154.746 655.875C154.746 657.188 153.281 657.996 151.02 657.996C148.77 657.996 147.281 657.188 147.281 655.875C147.281 654.562 148.77 653.742 151.02 653.742ZM151.02 654.633C149.484 654.633 148.465 655.102 148.477 655.875C148.465 656.637 149.484 657.094 151.02 657.094C152.566 657.094 153.574 656.637 153.574 655.875C153.574 655.102 152.566 654.633 151.02 654.633ZM159.516 654.105C160.389 654.1 161.133 654.428 161.625 654.973H164.25V653.496H165.363V659.695H164.25V658.277H161.613C161.127 658.816 160.383 659.139 159.516 659.133C157.934 659.145 156.762 658.09 156.762 656.625C156.762 655.148 157.934 654.094 159.516 654.105ZM159.516 655.066C158.531 655.055 157.828 655.688 157.828 656.625C157.828 657.539 158.531 658.195 159.516 658.184C160.477 658.195 161.18 657.539 161.18 656.625C161.18 655.688 160.477 655.055 159.516 655.066ZM161.848 659.93C164.027 659.93 165.398 660.668 165.398 661.957C165.398 663.234 164.027 663.984 161.848 663.973C159.656 663.984 158.285 663.234 158.297 661.957C158.285 660.668 159.656 659.93 161.848 659.93ZM161.848 660.785C160.312 660.785 159.375 661.207 159.387 661.957C159.375 662.684 160.312 663.094 161.848 663.094C163.395 663.094 164.309 662.684 164.309 661.957C164.309 661.207 163.395 660.785 161.848 660.785ZM162.129 655.863C162.205 656.098 162.246 656.355 162.246 656.625C162.246 656.883 162.205 657.135 162.141 657.363H164.25V655.863H162.129ZM178.641 653.496V663.996H177.516V653.496H178.641ZM175.512 654.621C175.512 657.691 174.199 660.363 170.602 662.086L170.016 661.184C172.811 659.854 174.17 657.961 174.387 655.512H170.52V654.621H175.512ZM188.531 653.496V656.602H190.055V657.527H188.531V661.125H187.406V653.496H188.531ZM185.684 654.293C185.684 657.047 183.809 659.051 180.738 659.977L180.27 659.086C182.725 658.348 184.254 656.953 184.477 655.219H180.715V654.293H185.684ZM188.965 662.871V663.773H181.863V660.34H182.988V662.871H188.965ZM195.434 654.129C197.637 654.129 199.312 655.289 199.312 657.059C199.312 658.828 197.637 660 195.434 659.988C193.23 660 191.566 658.828 191.566 657.059C191.566 655.289 193.23 654.129 195.434 654.129ZM195.434 655.031C193.828 655.02 192.621 655.84 192.633 657.059C192.621 658.289 193.828 659.074 195.434 659.074C197.039 659.074 198.234 658.289 198.234 657.059C198.234 655.84 197.039 655.02 195.434 655.031ZM200.262 661.711V662.637H190.652V661.711H200.262ZM210.633 661.805V662.742H201.023V661.805H205.254V659.965H202.195V656.625H208.359V655.148H202.172V654.234H209.461V657.516H203.297V659.051H209.707V659.965H206.355V661.805H210.633ZM213.281 662.191L212.344 665.426H211.348L211.969 662.191H213.281ZM222.855 654.562C222.844 657.656 221.895 660.41 218.062 662.297L217.453 661.465C219.352 660.533 220.482 659.402 221.109 658.066L217.676 658.395L217.512 657.434L221.449 657.164C221.607 656.631 221.701 656.062 221.742 655.465H218.062V654.562H222.855ZM225.574 653.496V657.691H227.203V658.605H225.574V663.984H224.461V653.496H225.574ZM233.227 654.562C233.215 657.656 232.266 660.41 228.434 662.297L227.824 661.465C229.723 660.533 230.854 659.402 231.48 658.066L228.047 658.395L227.883 657.434L231.82 657.164C231.979 656.631 232.072 656.062 232.113 655.465H228.434V654.562H233.227ZM235.945 653.496V657.691H237.574V658.605H235.945V663.984H234.832V653.496H235.945ZM242.918 654.129C245.168 654.141 246.797 655.242 246.797 656.918C246.797 658.494 245.432 659.531 243.469 659.695V661.758H247.746V662.684H238.137V661.758H242.367V659.695C240.416 659.531 239.051 658.494 239.051 656.918C239.051 655.242 240.68 654.141 242.918 654.129ZM242.918 655.043C241.301 655.031 240.129 655.781 240.129 656.918C240.129 658.102 241.301 658.828 242.918 658.84C244.547 658.828 245.719 658.102 245.719 656.918C245.719 655.781 244.547 655.031 242.918 655.043ZM254.578 656.707C254.578 658.336 255.34 660.035 256.805 660.797L256.172 661.629C255.158 661.09 254.449 660.088 254.074 658.898C253.693 660.164 252.99 661.26 251.977 661.852L251.32 661.031C252.762 660.188 253.523 658.395 253.535 656.707V656.32H251.59V655.395H253.535V653.871H254.578V655.395H256.488V656.32H254.578V656.707ZM260.508 653.496V663.996H259.441V658.605H258.188V663.48H257.133V653.695H258.188V657.668H259.441V653.496H260.508ZM263.531 653.977V657.574C265.049 657.562 266.426 657.475 267.926 657.199L268.078 658.102C266.402 658.418 264.926 658.512 263.25 658.5H262.43V653.977H263.531ZM270.562 653.496V658.898H269.449V656.062H266.566V655.16H269.449V653.496H270.562ZM270.562 659.355V661.98H264.82V662.965H270.902V663.867H263.719V661.125H269.449V660.234H263.695V659.355H270.562ZM276.961 653.672C279.328 653.672 280.711 654.305 280.711 655.477C280.711 656.648 279.328 657.293 276.961 657.293C274.594 657.293 273.211 656.648 273.211 655.477C273.211 654.305 274.594 653.672 276.961 653.672ZM276.961 654.492C275.285 654.492 274.359 654.855 274.371 655.477C274.359 656.121 275.285 656.461 276.961 656.461C278.637 656.461 279.562 656.121 279.562 655.477C279.562 654.855 278.637 654.492 276.961 654.492ZM281.754 657.938V658.828H272.18V657.938H281.754ZM280.547 659.637V662.098H274.43V663.035H280.84V663.891H273.34V661.289H279.445V660.469H273.328V659.637H280.547ZM295.055 659.016V659.895H285.457V659.016H289.699V658.102H286.711V653.777H293.883V654.656H287.836V655.512H293.613V656.344H287.836V657.234H293.953V658.102H290.812V659.016H295.055ZM290.262 660.586C292.57 660.574 293.883 661.184 293.883 662.285C293.883 663.398 292.57 663.984 290.262 663.973C287.93 663.984 286.617 663.398 286.617 662.285C286.617 661.184 287.93 660.574 290.262 660.586ZM290.262 661.418C288.609 661.418 287.719 661.723 287.73 662.285C287.719 662.848 288.609 663.141 290.262 663.129C291.891 663.141 292.77 662.848 292.77 662.285C292.77 661.723 291.891 661.418 290.262 661.418ZM301.043 655.23V656.133H295.828V655.23H297.891V653.801H298.992V655.23H301.043ZM298.441 656.766C299.777 656.766 300.715 657.762 300.727 659.18C300.715 660.609 299.777 661.617 298.441 661.617C297.129 661.617 296.156 660.609 296.168 659.18C296.156 657.762 297.129 656.766 298.441 656.766ZM298.441 657.691C297.68 657.691 297.152 658.312 297.152 659.18C297.152 660.07 297.68 660.668 298.441 660.668C299.191 660.668 299.742 660.07 299.742 659.18C299.742 658.312 299.191 657.691 298.441 657.691ZM304.84 653.496V663.996H303.785V658.781H302.578V663.504H301.523V653.73H302.578V657.867H303.785V653.496H304.84ZM308.109 662.191L307.172 665.426H306.176L306.797 662.191H308.109ZM67.2949 671.496V681.996H66.2285V676.617H64.8809V681.457H63.8379V671.707H64.8809V675.703H66.2285V671.496H67.2949ZM59.9121 672.738V678.34C60.8848 678.334 61.9453 678.258 63.1348 678.023L63.252 678.996C61.8105 679.254 60.6035 679.324 59.4785 679.324H58.7988V672.738H59.9121ZM81.1816 677.414V678.316H76.916V681.984H75.8262V678.316H71.6074V677.414H81.1816ZM80.2793 672.117V673.008H77.0332C77.0508 674.309 78.668 675.469 80.6543 675.738L80.2441 676.617C78.5215 676.348 77.0332 675.498 76.4004 674.297C75.75 675.498 74.2676 676.348 72.5684 676.617L72.1465 675.738C74.1094 675.469 75.7266 674.309 75.7676 673.008H72.498V672.117H80.2793ZM90.7324 671.508V679.266H89.6191V676.535H87.3223V677.52H82.4824V672.199H83.5957V673.98H86.2207V672.199H87.3223V673.371H89.6191V671.508H90.7324ZM90.9668 680.871V681.773H83.877V678.504H85.002V680.871H90.9668ZM83.5957 676.617H86.2207V674.836H83.5957V676.617ZM87.3223 675.633H89.6191V674.285H87.3223V675.633ZM98.959 673.664C98.959 674.883 99.9082 676.008 101.514 676.465L100.998 677.332C99.7852 676.975 98.8887 676.236 98.4199 675.281C97.9629 676.336 97.043 677.15 95.7949 677.531L95.2559 676.664C96.8613 676.195 97.8574 674.988 97.8574 673.664V673.559H95.5723V672.668H97.8574V671.449H98.9707V672.668H101.244V673.559H98.959V673.664ZM103.529 671.496V674.098H105.053V675.023H103.529V677.695H102.416V671.496H103.529ZM103.529 678.164V681.867H96.8262V678.164H103.529ZM97.916 679.043V680.965H102.428V679.043H97.916ZM108.498 672.281C109.453 672.281 110.244 672.832 110.713 673.781H113.303V671.496H114.404V682.02H113.303V677.988H110.783C110.332 679.043 109.506 679.652 108.498 679.652C106.928 679.652 105.826 678.223 105.838 675.961C105.826 673.711 106.928 672.281 108.498 672.281ZM108.498 673.277C107.549 673.277 106.893 674.309 106.893 675.961C106.893 677.625 107.549 678.656 108.498 678.656C109.447 678.656 110.104 677.625 110.104 675.961C110.104 674.309 109.447 673.277 108.498 673.277ZM111.029 674.695C111.105 675.082 111.158 675.504 111.158 675.961C111.158 676.359 111.123 676.729 111.053 677.074H113.303V674.695H111.029ZM127.131 671.496V675.68H128.76V676.605H127.131V681.984H126.018V671.496H127.131ZM124.389 672.598C124.377 675.633 123.041 678.34 119.584 680.051L118.963 679.184C121.594 677.871 123.023 675.973 123.252 673.523H119.49V672.598H124.389ZM137.807 674.332V675.234H130.6V671.684H131.701V674.332H137.807ZM138.908 676.348V677.262H129.322V676.348H138.908ZM134.104 678.117C136.365 678.117 137.725 678.809 137.725 680.027C137.725 681.258 136.365 681.949 134.104 681.949C131.83 681.949 130.459 681.258 130.459 680.027C130.459 678.809 131.83 678.117 134.104 678.117ZM134.104 678.984C132.498 678.996 131.584 679.348 131.584 680.027C131.584 680.695 132.498 681.094 134.104 681.094C135.686 681.094 136.611 680.695 136.611 680.027C136.611 679.348 135.686 678.996 134.104 678.984ZM151.377 671.508V679.242H150.264V676.512H147.662C147.164 677.104 146.402 677.461 145.529 677.461C143.947 677.461 142.775 676.359 142.775 674.812C142.775 673.254 143.947 672.152 145.529 672.141C146.396 672.146 147.152 672.504 147.65 673.09H150.264V671.508H151.377ZM151.658 680.871V681.773H144.557V678.434H145.67V680.871H151.658ZM145.529 673.137C144.545 673.137 143.842 673.816 143.842 674.812C143.842 675.809 144.545 676.477 145.529 676.477C146.479 676.477 147.193 675.809 147.193 674.812C147.193 673.816 146.479 673.137 145.529 673.137ZM148.143 673.992C148.213 674.244 148.26 674.52 148.26 674.812C148.26 675.094 148.219 675.363 148.143 675.609H150.264V673.992H148.143ZM161.35 672.152V673.078C161.35 674.074 161.35 675.152 161.057 676.652H162.568V677.566H158.314V682.008H157.189V677.566H152.994V676.652H159.932C160.248 675.158 160.248 674.057 160.248 673.078V673.066H154.166V672.152H161.35ZM175.33 671.496V681.996H174.264V676.523H172.963V681.48H171.908V671.695H172.963V675.609H174.264V671.496H175.33ZM170.725 672.68V679.23H166.646V672.68H170.725ZM167.701 673.559V678.34H169.682V673.559H167.701ZM180.568 673.676C180.568 674.93 181.6 676.102 183.229 676.547L182.701 677.414C181.471 677.074 180.533 676.312 180.041 675.316C179.572 676.412 178.646 677.273 177.381 677.672L176.83 676.793C178.447 676.301 179.455 675.035 179.455 673.676V673.617H177.123V672.727H179.455V671.496H180.58V672.727H182.889V673.617H180.568V673.676ZM185.373 671.508V677.906H184.26V671.508H185.373ZM181.846 678.105C184.049 678.105 185.408 678.82 185.408 680.039C185.408 681.27 184.049 681.984 181.846 681.973C179.631 681.984 178.271 681.27 178.271 680.039C178.271 678.82 179.631 678.105 181.846 678.105ZM181.846 678.984C180.287 678.984 179.396 679.371 179.396 680.039C179.396 680.73 180.287 681.117 181.846 681.117C183.404 681.117 184.307 680.73 184.307 680.039C184.307 679.371 183.404 678.984 181.846 678.984ZM198.697 671.496V681.996H197.572V671.496H198.697ZM195.568 672.621C195.568 675.691 194.256 678.363 190.658 680.086L190.072 679.184C192.867 677.854 194.227 675.961 194.443 673.512H190.576V672.621H195.568ZM208.822 674.332V675.234H201.615V671.684H202.717V674.332H208.822ZM209.924 676.348V677.262H200.338V676.348H209.924ZM205.119 678.117C207.381 678.117 208.74 678.809 208.74 680.027C208.74 681.258 207.381 681.949 205.119 681.949C202.846 681.949 201.475 681.258 201.475 680.027C201.475 678.809 202.846 678.117 205.119 678.117ZM205.119 678.984C203.514 678.996 202.6 679.348 202.6 680.027C202.6 680.695 203.514 681.094 205.119 681.094C206.701 681.094 207.627 680.695 207.627 680.027C207.627 679.348 206.701 678.996 205.119 678.984ZM216.029 672.422V677.32H211.119V672.422H216.029ZM212.209 673.324V676.441H214.939V673.324H212.209ZM218.959 671.484V674.625H220.482V675.562H218.959V679.184H217.846V671.484H218.959ZM219.404 680.871V681.773H212.303V678.445H213.416V680.871H219.404ZM232.717 671.508V677.484H231.604V671.508H232.717ZM232.717 678.012V681.867H225.814V678.012H232.717ZM226.916 678.902V680.965H231.627V678.902H226.916ZM227.021 672.035C228.627 672.035 229.811 673.043 229.811 674.52C229.811 675.961 228.627 676.98 227.021 676.98C225.416 676.98 224.221 675.961 224.221 674.52C224.221 673.043 225.416 672.035 227.021 672.035ZM227.021 672.973C226.025 672.973 225.311 673.582 225.311 674.52C225.311 675.422 226.025 676.043 227.021 676.043C228.006 676.043 228.721 675.422 228.721 674.52C228.721 673.582 228.006 672.973 227.021 672.973ZM238.236 674.168C238.225 676.09 239.385 678.012 241.014 678.738L240.346 679.617C239.139 679.043 238.184 677.865 237.697 676.43C237.205 677.965 236.238 679.236 234.979 679.852L234.299 678.914C235.951 678.176 237.111 676.172 237.111 674.168V672.375H238.236V674.168ZM243.076 671.496V682.02H241.963V671.496H243.076ZM256.693 671.496V681.996H255.627V671.496H256.693ZM254.561 671.719V681.469H253.506V676.125H251.877V675.211H253.506V671.719H254.561ZM250.846 674.426C250.846 676.219 251.572 678.012 253.049 678.867L252.381 679.688C251.379 679.09 250.688 678.029 250.33 676.758C249.949 678.129 249.234 679.295 248.209 679.934L247.529 679.102C249.018 678.199 249.779 676.289 249.779 674.426V673.582H247.846V672.68H252.65V673.582H250.846V674.426ZM262.787 678.094C265.061 678.094 266.49 678.809 266.502 680.039C266.49 681.258 265.061 681.984 262.787 681.973C260.537 681.984 259.096 681.258 259.096 680.039C259.096 678.809 260.537 678.094 262.787 678.094ZM262.787 678.938C261.193 678.938 260.197 679.348 260.209 680.039C260.197 680.719 261.193 681.117 262.787 681.117C264.393 681.117 265.389 680.719 265.4 680.039C265.389 679.348 264.393 678.938 262.787 678.938ZM266.42 672.012V672.891C266.42 673.734 266.42 674.602 266.127 675.68L265.037 675.562C265.318 674.49 265.318 673.717 265.318 672.902H259.178V672.012H266.42ZM267.615 676.324V677.227H258.064V676.324H261.896V674.355H262.986V676.324H267.615ZM280.084 671.508V677.555H278.959V671.508H280.084ZM271.377 676.441C272.244 676.441 273.258 676.436 274.307 676.406V675.375H272.314V672H277.33V672.914H273.428V674.496H277.424V675.375H275.408V676.359C276.346 676.312 277.283 676.242 278.162 676.125L278.221 676.91C275.947 677.297 273.428 677.332 271.541 677.344L271.377 676.441ZM274.189 678.012V679.02H278.982V678.012H280.084V681.867H273.076V678.012H274.189ZM274.189 680.965H278.982V679.875H274.189V680.965ZM290.443 671.496V681.996H289.33V671.496H290.443ZM283.471 672.516V678.363C285 678.352 286.611 678.229 288.299 677.883L288.451 678.82C286.588 679.195 284.9 679.324 283.248 679.324H282.369V672.516H283.471ZM300.275 671.496V675.562H301.963V676.477H300.275V682.02H299.162V671.496H300.275ZM297.451 672.504V673.406H293.654V678.48C295.418 678.475 296.742 678.398 298.236 678.129L298.377 679.066C296.736 679.359 295.342 679.418 293.385 679.406H292.541V672.504H297.451Z" fill="#475467"/>
</g>
<defs>
<filter id="filter0_dddd_13_1798" x="13" y="146" width="376" height="151" filterUnits="userSpaceOnUse" color-interpolation-filters="sRGB">
<feFlood flood-opacity="0" result="BackgroundImageFix"/>
<feColorMatrix in="SourceAlpha" type="matrix" values="0 0 0 0 0 0 0 0 0 0 0 0 0 0 0 0 0 0 127 0" result="hardAlpha"/>
<feOffset dx="2" dy="2"/>
<feGaussianBlur stdDeviation="2.5"/>
<feColorMatrix type="matrix" values="0 0 0 0 0.560784 0 0 0 0 0.560784 0 0 0 0 0.560784 0 0 0 0.1 0"/>
<feBlend mode="normal" in2="BackgroundImageFix" result="effect1_dropShadow_13_1798"/>
<feColorMatrix in="SourceAlpha" type="matrix" values="0 0 0 0 0 0 0 0 0 0 0 0 0 0 0 0 0 0 127 0" result="hardAlpha"/>
<feOffset dx="8" dy="6"/>
<feGaussianBlur stdDeviation="5"/>
<feColorMatrix type="matrix" values="0 0 0 0 0.560784 0 0 0 0 0.560784 0 0 0 0 0.560784 0 0 0 0.09 0"/>
<feBlend mode="normal" in2="effect1_dropShadow_13_1798" result="effect2_dropShadow_13_1798"/>
<feColorMatrix in="SourceAlpha" type="matrix" values="0 0 0 0 0 0 0 0 0 0 0 0 0 0 0 0 0 0 127 0" result="hardAlpha"/>
<feOffset dx="17" dy="14"/>
<feGaussianBlur stdDeviation="6.5"/>
<feColorMatrix type="matrix" values="0 0 0 0 0.560784 0 0 0 0 0.560784 0 0 0 0 0.560784 0 0 0 0.05 0"/>
<feBlend mode="normal" in2="effect2_dropShadow_13_1798" result="effect3_dropShadow_13_1798"/>
<feColorMatrix in="SourceAlpha" type="matrix" values="0 0 0 0 0 0 0 0 0 0 0 0 0 0 0 0 0 0 127 0" result="hardAlpha"/>
<feOffset dx="30" dy="24"/>
<feGaussianBlur stdDeviation="7.5"/>
<feColorMatrix type="matrix" values="0 0 0 0 0.560784 0 0 0 0 0.560784 0 0 0 0 0.560784 0 0 0 0.01 0"/>
<feBlend mode="normal" in2="effect3_dropShadow_13_1798" result="effect4_dropShadow_13_1798"/>
<feBlend mode="normal" in="SourceGraphic" in2="effect4_dropShadow_13_1798" result="shape"/>
</filter>
<clipPath id="clip0_13_1798">
<rect width="360" height="728" fill="white"/>
</clipPath>
<clipPath id="clip1_13_1798">
<rect width="36" height="36" fill="white" transform="translate(162 166)"/>
</clipPath>
</defs>
</svg>
