<svg width="66" height="60" viewBox="0 0 66 60" fill="none" xmlns="http://www.w3.org/2000/svg">
<g clip-path="url(#clip0_397_12060)">
<ellipse cx="26" cy="52.5" rx="20" ry="4.5" fill="url(#paint0_radial_397_12060)" fill-opacity="0.2" style="mix-blend-mode:color-burn"/>
<path d="M32.6507 52.9614C32.3608 52.6018 32.1307 52.1713 31.9286 51.756C30.4969 48.8191 29.4314 45.7045 28.7641 42.5053C28.6806 42.106 28.6147 41.6516 28.8553 41.3231C29.0577 41.0466 29.4174 40.9457 29.7504 40.8608C31.873 40.3258 33.9966 39.7898 36.1192 39.2548L38.5141 46.0751C39.0597 45.744 39.6352 45.476 40.2536 45.3082C41.7655 44.8992 43.597 45.2666 44.4712 46.5667C44.9262 47.2454 45.0727 48.1001 44.99 48.9131C44.9476 49.3206 44.8518 49.7201 44.7193 50.1073C44.3734 51.1177 43.5297 51.8783 42.488 52.1145C40.2128 52.6299 37.9377 53.1433 35.6625 53.6586C35.0115 53.8063 34.3186 53.9521 33.6876 53.7347C33.2676 53.5898 32.9332 53.3073 32.6537 52.9605L32.6507 52.9614Z" fill="#C476DB"/>
<path d="M32.6511 52.9616C32.3611 52.602 32.1311 52.1714 31.929 51.7561C30.4973 48.8192 29.4317 45.7046 28.7645 42.5054C28.6809 42.1062 28.6151 41.6517 28.8556 41.3233C29.058 41.0467 29.4177 40.9458 29.7508 40.8609C31.8733 40.3259 33.9969 39.7899 36.1195 39.2549L38.5145 46.0752C39.0601 45.7442 39.6356 45.4761 40.2539 45.3083C41.7658 44.8993 43.5973 45.2667 44.4715 46.5668C44.9265 47.2455 45.073 48.1002 44.9903 48.9132C44.948 49.3207 44.8522 49.7202 44.7196 50.1074C44.3737 51.1178 43.53 51.8784 42.4884 52.1146C40.2132 52.63 37.938 53.1434 35.6629 53.6588C35.0118 53.8064 34.3189 53.9522 33.6879 53.7348C33.2679 53.5899 32.9335 53.3074 32.654 52.9606L32.6511 52.9616Z" fill="#C476DB"/>
<path fill-rule="evenodd" clip-rule="evenodd" d="M37.0034 41.7728C36.7568 41.9804 36.472 42.1653 36.1437 42.3181C34.2478 43.2007 31.0501 43.752 29.1043 43.9916C28.9814 43.4985 28.868 43.003 28.7642 42.5054C28.6807 42.1061 28.6148 41.6516 28.8553 41.3232C29.0578 41.0466 29.4175 40.9457 29.7505 40.8609C30.8119 40.5933 31.8735 40.3256 32.9351 40.0578C33.9966 39.7901 35.058 39.5224 36.1192 39.2549L37.0034 41.7728Z" fill="#A361B7"/>
<path d="M17.202 51.8284C17.4701 51.4521 17.6741 51.0087 17.8511 50.5821C19.1053 47.5651 19.9834 44.3925 20.4589 41.1593C20.5185 40.7557 20.5572 40.2982 20.2975 39.9846C20.0789 39.7206 19.7139 39.6413 19.3764 39.5764C17.2257 39.1688 15.074 38.7603 12.9233 38.3527L10.9388 45.3035C10.3745 45.0056 9.78403 44.7723 9.15683 44.6416C7.62321 44.3234 5.81686 44.7992 5.02167 46.1491C4.60788 46.8537 4.5126 47.7156 4.64357 48.5223C4.71011 48.9265 4.82952 49.3196 4.9849 49.6982C5.39037 50.6862 6.27789 51.3952 7.33177 51.5689C9.63361 51.9479 11.9353 52.3248 14.2371 52.7037C14.8958 52.8123 15.5962 52.9166 16.2131 52.662C16.6237 52.4924 16.9407 52.1904 17.199 51.8276L17.202 51.8284Z" fill="#C476DB"/>
<path fill-rule="evenodd" clip-rule="evenodd" d="M12.228 40.7859C12.5148 41.1723 12.8838 41.5284 13.3538 41.8292C15.0187 42.8946 17.7555 43.8355 19.8346 44.4331C20.0884 43.3513 20.2966 42.2588 20.4583 41.1593C20.5179 40.7557 20.5566 40.2981 20.2969 39.9846C20.0784 39.7206 19.7133 39.6413 19.3758 39.5764C18.3005 39.3726 17.2248 39.1686 16.1492 38.9645C15.0736 38.7605 13.998 38.5565 12.9227 38.3527L12.228 40.7859Z" fill="#A361B7"/>
<path d="M24.7445 43.0277C35.6016 43.0277 44.4029 34.2263 44.4029 23.3693C44.4029 12.5123 35.6016 3.71094 24.7445 3.71094C13.8875 3.71094 5.08618 12.5123 5.08618 23.3693C5.08618 34.2263 13.8875 43.0277 24.7445 43.0277Z" fill="#C476DB"/>
<mask id="mask0_397_12060" style="mask-type:luminance" maskUnits="userSpaceOnUse" x="5" y="3" width="40" height="41">
<path d="M24.7445 43.0277C35.6016 43.0277 44.4029 34.2263 44.4029 23.3693C44.4029 12.5123 35.6016 3.71094 24.7445 3.71094C13.8875 3.71094 5.08618 12.5123 5.08618 23.3693C5.08618 34.2263 13.8875 43.0277 24.7445 43.0277Z" fill="white"/>
</mask>
<g mask="url(#mask0_397_12060)">
<path d="M22.2342 39.2093C32.9725 39.2093 41.6776 30.5042 41.6776 19.7659C41.6776 9.02762 32.9725 0.32251 22.2342 0.32251C11.4959 0.32251 2.79077 9.02762 2.79077 19.7659C2.79077 30.5042 11.4959 39.2093 22.2342 39.2093Z" fill="url(#paint1_linear_397_12060)"/>
</g>
<path d="M21.4425 13.5986C21.4173 12.9908 21.0456 12.5126 20.6122 12.5306C20.1788 12.5485 19.8479 13.0558 19.8731 13.6636C19.8983 14.2714 20.27 14.7496 20.7034 14.7316C21.1368 14.7137 21.4677 14.2064 21.4425 13.5986Z" fill="#252525"/>
<path d="M27.6151 14.1005C27.5899 13.4927 27.2182 13.0145 26.7848 13.0325C26.3514 13.0505 26.0205 13.5578 26.0457 14.1656C26.0709 14.7734 26.4426 15.2516 26.876 15.2336C27.3094 15.2156 27.6403 14.7083 27.6151 14.1005Z" fill="#252525"/>
<path d="M24.9462 18.1293C24.9204 17.5057 24.0265 17.0363 22.9497 17.081C21.8728 17.1256 21.0209 17.6673 21.0467 18.2909C21.0726 18.9145 21.9664 19.3839 23.0433 19.3392C24.1201 19.2946 24.9721 18.7529 24.9462 18.1293Z" fill="white"/>
<path d="M54.0606 21.2689C54.2498 20.6365 54.4984 20.1476 54.8066 19.8022C55.1233 19.4593 55.569 19.183 56.1439 18.9732C56.6597 18.7737 57.0394 18.594 57.2827 18.4341C57.5287 18.2655 57.6951 18.036 57.782 17.7455C57.8791 17.4207 57.8434 17.1354 57.6749 16.8895C57.509 16.635 57.2252 16.4477 56.8235 16.3276C56.4133 16.2049 56.0515 16.2316 55.7381 16.4079C55.4358 16.5781 55.2323 16.8385 55.1274 17.1888L52.897 16.5217C53.0785 15.9149 53.3917 15.4127 53.8365 15.0151C54.2924 14.6115 54.8274 14.3479 55.4416 14.2244C56.0643 14.1034 56.7175 14.1452 57.4012 14.3497C58.1276 14.5669 58.7131 14.8817 59.1577 15.294C59.6023 15.7063 59.8923 16.1841 60.0277 16.7274C60.1657 17.2621 60.1478 17.82 59.974 18.4011C59.7055 19.2984 59.0401 19.9513 57.9776 20.3597C57.3977 20.5865 56.9771 20.8099 56.7158 21.0296C56.4631 21.252 56.2831 21.5426 56.1757 21.9015L54.0606 21.2689ZM54.0997 25.2468C53.7066 25.1292 53.4202 24.9038 53.2405 24.5708C53.0583 24.2463 53.026 23.8875 53.1435 23.4944C53.2611 23.1013 53.4865 22.8149 53.8195 22.6352C54.1526 22.4555 54.5157 22.4244 54.9088 22.542C55.3019 22.6596 55.5882 22.8849 55.7679 23.218C55.9476 23.5511 55.9787 23.9141 55.8611 24.3072C55.7435 24.7003 55.5194 24.9825 55.1889 25.1536C54.8559 25.3333 54.4928 25.3643 54.0997 25.2468Z" fill="url(#paint2_linear_397_12060)"/>
<path d="M49.8235 9.86594L48.1329 10.1947L46 2.57263L48.9448 2.00001L49.8235 9.86594ZM49.1799 11.0676C49.598 10.9863 49.971 11.0612 50.299 11.2924C50.6269 11.5235 50.8332 11.857 50.9179 12.2927C51.0027 12.7285 50.9354 13.1102 50.7162 13.4379C50.4988 13.7751 50.181 13.9844 49.7629 14.0657C49.3448 14.147 48.9718 14.0721 48.6439 13.8409C48.3178 13.6192 48.1124 13.2905 48.0276 12.8547C47.9429 12.419 48.0092 12.0325 48.2267 11.6953C48.4441 11.3581 48.7618 11.1489 49.1799 11.0676Z" fill="url(#paint3_linear_397_12060)"/>
</g>
<defs>
<radialGradient id="paint0_radial_397_12060" cx="0" cy="0" r="1" gradientUnits="userSpaceOnUse" gradientTransform="translate(26 52.5) scale(20 4.5)">
<stop stop-color="#A5A5A5"/>
<stop offset="1" stop-opacity="0"/>
</radialGradient>
<linearGradient id="paint1_linear_397_12060" x1="8.48559" y1="6.01733" x2="35.9828" y2="33.5145" gradientUnits="userSpaceOnUse">
<stop stop-color="#E0B8EC"/>
<stop offset="1" stop-color="#C476DB"/>
</linearGradient>
<linearGradient id="paint2_linear_397_12060" x1="57.3692" y1="14.3401" x2="54.1061" y2="25.2487" gradientUnits="userSpaceOnUse">
<stop stop-color="#9747FF"/>
<stop offset="1" stop-color="#CDA7FF"/>
</linearGradient>
<linearGradient id="paint3_linear_397_12060" x1="47.4724" y1="2.28632" x2="49.7629" y2="14.0657" gradientUnits="userSpaceOnUse">
<stop stop-color="#9747FF"/>
<stop offset="1" stop-color="#CDA7FF"/>
</linearGradient>
<clipPath id="clip0_397_12060">
<rect width="66" height="60" fill="white"/>
</clipPath>
</defs>
</svg>
