<svg width="22" height="22" viewBox="0 0 22 22" fill="none" xmlns="http://www.w3.org/2000/svg">
<path fill-rule="evenodd" clip-rule="evenodd" d="M16.2888 2.8824C15.7246 2.31921 14.9598 2.0032 14.1626 2.00391C13.3655 2.00461 12.6012 2.32196 12.038 2.88615L3.4674 11.4568C2.52909 12.3951 2.00195 13.6677 2.00195 14.9947C2.00195 16.3216 2.52909 17.5943 3.4674 18.5326C4.4057 19.4709 5.67832 19.998 7.00529 19.998C8.33226 19.998 9.60488 19.4709 10.5432 18.5326L19.7332 9.34256C20.1237 8.95204 20.7569 8.95204 21.1474 9.34256C21.5379 9.73309 21.5379 10.3663 21.1474 10.7568L11.9574 19.9468C10.644 21.2602 8.86269 21.998 7.00529 21.998C5.14789 21.998 3.36656 21.2602 2.05318 19.9468C0.739802 18.6334 0.00195312 16.8521 0.00195312 14.9947C0.00195312 13.1373 0.739802 11.3559 2.05318 10.0426L10.6226 1.47319C11.5604 0.533985 12.8336 0.00507973 14.1609 0.0039082C15.4885 0.00273643 16.7622 0.529004 17.7018 1.46694C18.6414 2.40487 19.1699 3.67764 19.171 5.00525C19.1722 6.33286 18.646 7.60656 17.708 8.54615L9.1174 17.1168C8.55458 17.6796 7.79124 17.9958 6.99529 17.9958C6.19934 17.9958 5.436 17.6796 4.87318 17.1168C4.31037 16.554 3.99418 15.7906 3.99418 14.9947C3.99418 14.1987 4.31037 13.4354 4.87318 12.8726L13.3636 4.39214C13.7544 4.00185 14.3875 4.00222 14.7778 4.39298C15.1681 4.78373 15.1677 5.4169 14.777 5.80719L6.2874 14.2868C6.09991 14.4745 5.99418 14.7294 5.99418 14.9947C5.99418 15.2602 6.09965 15.5148 6.2874 15.7026C6.47514 15.8903 6.72978 15.9958 6.99529 15.9958C7.2608 15.9958 7.51544 15.8903 7.70318 15.7026L16.2926 7.13319C16.2928 7.1329 16.2931 7.13261 16.2934 7.13233C16.8561 6.56822 17.1718 5.80379 17.171 5.00701C17.1703 4.20984 16.853 3.44559 16.2888 2.8824Z" fill="#790DE4"/>
</svg>
