<svg width="22" height="22" viewBox="0 0 22 22" fill="none" xmlns="http://www.w3.org/2000/svg">
<path fill-rule="evenodd" clip-rule="evenodd" d="M16.2883 2.88264C15.7241 2.31945 14.9593 2.00345 14.1621 2.00415C13.365 2.00486 12.6007 2.32221 12.0375 2.88639L3.46691 11.457C2.5286 12.3953 2.00146 13.6679 2.00146 14.9949C2.00146 16.3219 2.5286 17.5945 3.46691 18.5328C4.40522 19.4711 5.67783 19.9982 7.0048 19.9982C8.33177 19.9982 9.60439 19.4711 10.5427 18.5328L19.7327 9.34281C20.1232 8.95228 20.7564 8.95228 21.1469 9.34281C21.5374 9.73333 21.5374 10.3665 21.1469 10.757L11.9569 19.947C10.6435 21.2604 8.8622 21.9982 7.0048 21.9982C5.1474 21.9982 3.36607 21.2604 2.05269 19.947C0.739314 18.6336 0.00146484 16.8523 0.00146484 14.9949C0.00146484 13.1375 0.739314 11.3562 2.05269 10.0428L10.6221 1.47343C11.5599 0.534229 12.8331 0.00532387 14.1604 0.00415234C15.488 0.00298058 16.7617 0.529248 17.7013 1.46718C18.6409 2.40512 19.1694 3.67788 19.1706 5.00549C19.1717 6.3331 18.6455 7.6068 17.7075 8.54639L9.11691 17.117C8.55409 17.6798 7.79075 17.996 6.9948 17.996C6.19886 17.996 5.43551 17.6798 4.87269 17.117C4.30988 16.5542 3.99369 15.7909 3.99369 14.9949C3.99369 14.199 4.30988 13.4356 4.87269 12.8728L13.3631 4.39239C13.7539 4.00209 14.387 4.00247 14.7773 4.39322C15.1676 4.78398 15.1672 5.41714 14.7765 5.80744L6.28691 14.287C6.09942 14.4747 5.99369 14.7296 5.99369 14.9949C5.99369 15.2604 6.09916 15.5151 6.28691 15.7028C6.47465 15.8906 6.72929 15.996 6.9948 15.996C7.26031 15.996 7.51495 15.8906 7.70269 15.7028L16.2921 7.13343C16.2924 7.13314 16.2926 7.13286 16.2929 7.13257C16.8556 6.56847 17.1713 5.80403 17.1706 5.00726C17.1699 4.21008 16.8525 3.44583 16.2883 2.88264Z" fill="#6C6C6C"/>
</svg>
