<svg width="22" height="22" viewBox="0 0 22 22" fill="none" xmlns="http://www.w3.org/2000/svg">
<path d="M13.2224 3.88867H8.778L6.55577 6.55534H3.88911C3.41761 6.55534 2.96543 6.74264 2.63203 7.07604C2.29863 7.40944 2.11133 7.86162 2.11133 8.33312V16.3331C2.11133 16.8046 2.29863 17.2568 2.63203 17.5902C2.96543 17.9236 3.41761 18.1109 3.88911 18.1109H18.1113C18.5828 18.1109 19.035 17.9236 19.3684 17.5902C19.7018 17.2568 19.8891 16.8046 19.8891 16.3331V8.33312C19.8891 7.86162 19.7018 7.40944 19.3684 7.07604C19.035 6.74264 18.5828 6.55534 18.1113 6.55534H15.4447L13.2224 3.88867Z" stroke="white" stroke-width="1.5" stroke-linecap="round" stroke-linejoin="round"/>
<path d="M11.0002 14.556C12.4729 14.556 13.6668 13.3621 13.6668 11.8893C13.6668 10.4166 12.4729 9.22266 11.0002 9.22266C9.5274 9.22266 8.3335 10.4166 8.3335 11.8893C8.3335 13.3621 9.5274 14.556 11.0002 14.556Z" stroke="white" stroke-width="1.5" stroke-linecap="round" stroke-linejoin="round"/>
</svg>
